<svg width="49" height="54" viewBox="0 0 49 54" fill="none" xmlns="http://www.w3.org/2000/svg">
<path d="M24.2502 8.08357C23.5966 8.08402 22.9434 8.12236 22.2939 8.19905C17.7762 8.74578 13.6983 11.1726 11.0626 14.8829C8.42731 18.5931 7.47911 23.2426 8.45075 27.6884C9.42241 32.1344 12.2237 35.9646 16.1666 38.2372V40.4178C16.1666 41.8474 16.7346 43.2178 17.745 44.2287C18.7559 45.2391 20.1263 45.807 21.5558 45.807H26.945C28.3746 45.807 29.7445 45.2391 30.7554 44.2287C31.7659 43.2178 32.3338 41.8474 32.3338 40.4178V38.2372C36.4721 35.8496 39.342 31.7533 40.172 27.0479C41.0015 22.3425 39.7064 17.5113 36.6345 13.852C33.5621 10.1927 29.0279 8.0808 24.2502 8.08357ZM30.9832 35.9061L29.6394 36.6846V40.4183C29.6385 41.1329 29.3543 41.8176 28.8491 42.3228C28.3439 42.828 27.6591 43.1122 26.9446 43.1131H21.5559C20.8413 43.1122 20.1566 42.828 19.6514 42.3228C19.1461 41.8176 18.862 41.1328 18.861 40.4183V36.6846L17.5172 35.9061C14.2315 34.0137 11.8957 30.8245 11.0842 27.1211C10.2727 23.4172 11.0607 19.5427 13.2544 16.4505C15.4481 13.3579 18.8443 11.3337 22.6082 10.8755C23.1532 10.8115 23.7017 10.779 24.2502 10.779C28.232 10.7763 32.0108 12.536 34.5712 15.5858C37.1312 18.6356 38.2102 22.6621 37.5178 26.5829C36.8254 30.5043 34.4327 33.9173 30.9832 35.9061ZM30.9864 49.8491C30.9868 50.2063 30.8448 50.5492 30.5921 50.8018C30.3395 51.0548 29.9967 51.1965 29.6394 51.1965H26.9446C26.9446 52.1591 26.4313 53.0487 25.5977 53.53C24.764 54.0113 23.7365 54.0113 22.9028 53.53C22.0692 53.0487 21.5559 52.1591 21.5559 51.1965H18.861C18.1172 51.1965 17.5141 50.5929 17.5141 49.8491C17.5141 49.1052 18.1172 48.5016 18.861 48.5016H29.6394C29.9967 48.5016 30.3395 48.6433 30.5921 48.8964C30.8448 49.149 30.9868 49.4918 30.9864 49.8491ZM5.3892 24.2507C5.3892 24.6084 5.24755 24.9513 4.99449 25.2039C4.74188 25.4565 4.39905 25.5981 4.04178 25.5981H1.34742C0.603115 25.5981 0 24.995 0 24.2507C0 23.5069 0.603115 22.9038 1.34742 22.9038H4.04178C4.39905 22.9033 4.74188 23.0454 4.99449 23.298C5.24755 23.5506 5.3892 23.8934 5.3892 24.2507ZM48.5012 24.2507C48.5012 24.6084 48.3595 24.9513 48.1069 25.2039C47.8543 25.4565 47.5115 25.5981 47.1538 25.5981H44.4594C43.7155 25.5981 43.112 24.995 43.112 24.2507C43.112 23.5069 43.7155 22.9038 44.4594 22.9038H47.1538C47.5115 22.9033 47.8543 23.0454 48.1069 23.298C48.3595 23.5506 48.5012 23.8934 48.5012 24.2507ZM22.9028 4.04178V1.34742C22.9028 0.603565 23.5064 0 24.2502 0C24.9941 0 25.5977 0.603566 25.5977 1.34742V4.04178C25.5977 4.78608 24.9941 5.3892 24.2502 5.3892C23.5064 5.3892 22.9028 4.78608 22.9028 4.04178ZM41.398 7.10199C41.6506 7.3546 41.7927 7.69743 41.7927 8.0547C41.7927 8.41197 41.6506 8.75479 41.398 9.00741L39.4931 10.9124C39.2414 11.169 38.8972 11.3147 38.5377 11.3165C38.1782 11.3183 37.8326 11.1763 37.5782 10.9218C37.3238 10.6674 37.1821 10.3223 37.1839 9.96235C37.1857 9.60283 37.331 9.2591 37.5881 9.00739L39.4931 7.10244C39.7457 6.84983 40.0881 6.70773 40.4453 6.70773C40.8026 6.70773 41.1454 6.84938 41.398 7.10199ZM9.00833 10.9124L7.10338 9.00741C6.58642 8.47963 6.59094 7.63424 7.11285 7.11192C7.63521 6.58956 8.48105 6.5855 9.00833 7.10245L10.9133 9.0074C11.17 9.25911 11.3161 9.6033 11.3179 9.96281C11.3197 10.3223 11.1776 10.6679 10.9232 10.9223C10.6688 11.1762 10.3233 11.3183 9.96373 11.3165C9.60421 11.3147 9.26003 11.1695 9.00833 10.9124Z" fill="#4EAB00"/>
</svg>
