<svg width="40" height="40" viewBox="0 0 40 40" fill="none" xmlns="http://www.w3.org/2000/svg">
<path d="M0 4.63082V15.2631C0 16.088 0.685296 16.7733 1.51026 16.7733C2.33522 16.7733 3.02052 16.088 3.02052 15.2631V4.63082C3.02052 3.74545 3.74545 3.02052 4.63082 3.02052H15.2631C16.088 3.02052 16.7733 2.33522 16.7733 1.51026C16.7733 0.685296 16.088 0 15.2631 0H4.63082C2.0728 0 0 2.07474 0 4.63082Z" fill="url(#paint0_linear_185_413)"/>
<path d="M0 35.1191C0 37.6771 2.07474 39.7499 4.63082 39.7499H15.2631C16.088 39.7499 16.7733 39.0646 16.7733 38.2396C16.7733 37.4146 16.088 36.7294 15.2631 36.7294H4.63082C3.74545 36.7294 3.02052 36.0044 3.02052 35.1191V24.4868C3.02052 23.6619 2.33522 22.9766 1.51026 22.9766C0.685296 22.9766 0 23.6619 0 24.4868V35.1191Z" fill="url(#paint1_linear_185_413)"/>
<path d="M38.2397 22.9766C37.4148 22.9766 36.7295 23.6619 36.7295 24.4868V35.1191C36.7295 36.0044 36.0045 36.7294 35.1192 36.7294H24.4869C23.662 36.7294 22.9767 37.4146 22.9767 38.2396C22.9767 39.0646 23.662 39.7499 24.4869 39.7499H35.1192C37.6772 39.7499 39.75 37.6751 39.75 35.1191V24.4868C39.75 23.6619 39.0647 22.9766 38.2397 22.9766Z" fill="url(#paint2_linear_185_413)"/>
<path d="M35.1192 0H24.4869C23.662 0 22.9767 0.685296 22.9767 1.51026C22.9767 2.33522 23.662 3.02052 24.4869 3.02052H35.1192C36.0045 3.02052 36.7295 3.74545 36.7295 4.63082V15.2631C36.7295 16.088 37.4148 16.7733 38.2397 16.7733C39.0647 16.7733 39.75 16.088 39.75 15.2631V4.63082C39.75 2.0728 37.6753 0 35.1192 0Z" fill="url(#paint3_linear_185_413)"/>
<path d="M26.5805 15.1631C26.5805 11.4573 23.56 8.45752 19.8749 8.45752C16.1899 8.45752 13.1694 11.478 13.1694 15.1631C13.1694 17.117 14.0151 18.8689 15.3649 20.0959C12.5653 21.6874 10.6737 24.6475 10.6737 28.0909V29.8032C10.6737 30.6281 11.359 31.3134 12.184 31.3134H27.6094C28.4344 31.3134 29.1197 30.6281 29.1197 29.8032V28.0909C29.1197 24.6475 27.2073 21.6874 24.4284 20.0959C25.7575 18.867 26.624 17.1151 26.624 15.1631H26.5805ZM26.0764 28.0909V28.2929H13.6715V28.0909C13.6715 24.6683 16.4504 21.8894 19.873 21.8894C23.2956 21.8894 26.0745 24.6683 26.0745 28.0909H26.0764ZM16.1899 15.1631C16.1899 13.1299 17.8418 11.478 19.8749 11.478C21.9081 11.478 23.56 13.1299 23.56 15.1631C23.56 17.1962 21.9081 18.8481 19.8749 18.8481C17.8418 18.8481 16.1899 17.1962 16.1899 15.1631Z" fill="url(#paint4_linear_185_413)"/>
<defs>
<linearGradient id="paint0_linear_185_413" x1="8.38666" y1="0" x2="8.38666" y2="16.7733" gradientUnits="userSpaceOnUse">
<stop stop-color="white"/>
<stop offset="1" stop-color="#B3F080"/>
</linearGradient>
<linearGradient id="paint1_linear_185_413" x1="8.38666" y1="22.9766" x2="8.38666" y2="39.7499" gradientUnits="userSpaceOnUse">
<stop stop-color="white"/>
<stop offset="1" stop-color="#B3F080"/>
</linearGradient>
<linearGradient id="paint2_linear_185_413" x1="31.3633" y1="22.9766" x2="31.3633" y2="39.7499" gradientUnits="userSpaceOnUse">
<stop stop-color="white"/>
<stop offset="1" stop-color="#B3F080"/>
</linearGradient>
<linearGradient id="paint3_linear_185_413" x1="31.3633" y1="0" x2="31.3633" y2="16.7733" gradientUnits="userSpaceOnUse">
<stop stop-color="white"/>
<stop offset="1" stop-color="#B3F080"/>
</linearGradient>
<linearGradient id="paint4_linear_185_413" x1="19.8967" y1="8.45752" x2="19.8967" y2="31.3134" gradientUnits="userSpaceOnUse">
<stop stop-color="white"/>
<stop offset="1" stop-color="#B3F080"/>
</linearGradient>
</defs>
</svg>
