<svg width="43" height="51" viewBox="0 0 43 51" fill="none" xmlns="http://www.w3.org/2000/svg">
<path d="M8.92311 3.46H13.0114V1.30196C13.0114 0.583968 13.5952 0.000212411 14.3132 0.000212411C15.0312 0.000212411 15.6149 0.583968 15.6149 1.30196V3.46H19.7053V1.30196C19.7053 0.583968 20.289 0.000212411 21.007 0.000212411C21.725 0.000212411 22.3088 0.583968 22.3088 1.30196V3.46H26.3971V1.30196C26.3971 0.583968 26.9809 0.000212411 27.6989 0.000212411C28.4168 0.000212411 29.0006 0.583968 29.0006 1.30196V3.46H33.091V1.30196C33.091 0.583968 33.6747 0.000212411 34.3927 0.000212411C35.1107 0.000212411 35.6945 0.583968 35.6945 1.30196V3.5719C37.2687 3.84648 38.6824 4.60923 39.7705 5.69739L39.7746 5.70146C41.1536 7.08251 42.012 8.98634 42.012 11.0792V42.443C42.012 44.536 41.1537 46.4398 39.7746 47.8208C38.3936 49.206 36.4877 50.0623 34.3927 50.0623H7.61934C5.52233 50.0623 3.6185 49.206 2.23739 47.8249C0.856342 46.4438 0 44.538 0 42.4429V11.0791C0 8.98416 0.85629 7.07829 2.23739 5.69719L2.31469 5.626C3.39269 4.57648 4.77785 3.84016 6.31756 3.57168V1.30175C6.31756 0.583756 6.90132 0 7.61931 0C8.3373 0 8.92106 0.583756 8.92106 1.30175V3.45979L8.92311 3.46ZM22.152 22.8477L24.5786 27.3571L29.6107 28.2703C30.3144 28.3964 30.7843 29.0717 30.6581 29.7755C30.6114 30.0358 30.4914 30.2616 30.3205 30.4406L26.7814 34.1444L27.4688 39.2172C27.5644 39.9271 27.0661 40.582 26.3542 40.6776C26.0918 40.7122 25.8376 40.6674 25.6179 40.5596L21.0069 38.3385L16.3958 40.5596C15.751 40.8708 14.972 40.6003 14.6608 39.9535C14.5408 39.7053 14.5083 39.4348 14.549 39.1826L15.2324 34.1444L11.6912 30.4426C11.197 29.9239 11.2173 29.1001 11.738 28.6059C11.9455 28.4086 12.2017 28.2927 12.4682 28.2581L17.4372 27.357L19.8638 22.8476C20.2034 22.2151 20.9906 21.9791 21.6232 22.3188C21.8571 22.4449 22.0361 22.6301 22.152 22.8477ZM22.5852 29.1346L21.0089 26.2037L19.4326 29.1346C19.2496 29.4702 18.9221 29.7225 18.5173 29.7957L15.2426 30.3896L17.5491 32.7998C17.8095 33.0744 17.9498 33.4629 17.8949 33.8677L17.4474 37.1688L20.4475 35.7227C20.7913 35.5579 21.2062 35.5437 21.5764 35.7227L24.5745 37.1688L24.127 33.8677C24.0762 33.4914 24.1901 33.0968 24.4728 32.7998L26.7793 30.3896L23.5758 29.8079C23.1711 29.759 22.7968 29.519 22.5894 29.1346L22.5852 29.1346ZM35.6964 6.23428V8.21945C35.6964 8.93744 35.1127 9.5212 34.3947 9.5212C33.6767 9.5212 33.0929 8.93744 33.0929 8.21945V6.06141H29.0026V8.21945C29.0026 8.93744 28.4188 9.5212 27.7008 9.5212C26.9829 9.5212 26.3991 8.93744 26.3991 8.21945V6.06141H22.3108V8.21945C22.3108 8.93744 21.727 9.5212 21.009 9.5212C20.291 9.5212 19.7073 8.93744 19.7073 8.21945V6.06141H15.6169V8.21945C15.6169 8.93744 15.0332 9.5212 14.3152 9.5212C13.5972 9.5212 13.0134 8.93744 13.0134 8.21945V6.06141H8.92511V8.21945C8.92511 8.93744 8.34135 9.5212 7.62336 9.5212C6.90537 9.5212 6.32161 8.93744 6.32161 8.21945V6.23428C5.48969 6.45802 4.74119 6.89328 4.13712 7.47501L4.08017 7.53399C3.17097 8.44319 2.60758 9.69812 2.60758 11.0772V15.1899H39.4148V11.0772C39.4148 9.69614 38.8514 8.44115 37.9442 7.53196C37.332 6.91972 36.5611 6.46411 35.7007 6.23224L35.6964 6.23428ZM39.4105 17.7954H2.6033V42.4432C2.6033 43.8222 3.16873 45.0772 4.07589 45.9864C4.98508 46.8956 6.24002 47.459 7.61909 47.459H34.3924C35.7714 47.459 37.0264 46.8936 37.9356 45.9864C38.8448 45.0792 39.4082 43.8243 39.4082 42.4432V17.7954H39.4105Z" fill="#4EAB00"/>
</svg>
