<svg width="34" height="40" viewBox="0 0 34 40" fill="none" xmlns="http://www.w3.org/2000/svg">
<path fill-rule="evenodd" clip-rule="evenodd" d="M23.3694 16.813C23.8114 16.5608 24.0834 16.0919 24.0834 15.5833C24.0834 15.0748 23.8114 14.6058 23.3694 14.3537L13.4527 8.68701C13.015 8.43626 12.4752 8.43767 12.0389 8.69126C11.6025 8.94484 11.3334 9.41234 11.3334 9.91667V21.25C11.3334 21.7543 11.6025 22.2218 12.0389 22.4754C12.4752 22.729 13.015 22.7304 13.4527 22.4797L23.3694 16.813ZM19.8107 15.5833L14.1667 18.8091V12.3576L19.8107 15.5833Z" fill="url(#paint0_linear_185_382)"/>
<path fill-rule="evenodd" clip-rule="evenodd" d="M2.83333 2.83333V28.3333C2.83333 30.6808 4.73592 32.5833 7.08333 32.5833H8.5V38.25C8.5 39.032 9.13467 39.6667 9.91667 39.6667C10.6987 39.6667 11.3333 39.032 11.3333 38.25V32.5833H22.6667V38.25C22.6667 39.032 23.3013 39.6667 24.0833 39.6667C24.8653 39.6667 25.5 39.032 25.5 38.25V32.5833H26.9167C29.2641 32.5833 31.1667 30.6808 31.1667 28.3333V2.83333H32.5833C33.3653 2.83333 34 2.19867 34 1.41667C34 0.634667 33.3653 0 32.5833 0H1.41667C0.634667 0 0 0.634667 0 1.41667C0 2.19867 0.634667 2.83333 1.41667 2.83333H2.83333ZM28.3333 2.83333H5.66667V28.3333C5.66667 29.1153 6.30133 29.75 7.08333 29.75H26.9167C27.6987 29.75 28.3333 29.1153 28.3333 28.3333V2.83333Z" fill="url(#paint1_linear_185_382)"/>
<defs>
<linearGradient id="paint0_linear_185_382" x1="17.7084" y1="8.5" x2="17.7084" y2="22.6667" gradientUnits="userSpaceOnUse">
<stop stop-color="white"/>
<stop offset="1" stop-color="#B3F080"/>
</linearGradient>
<linearGradient id="paint1_linear_185_382" x1="17" y1="0" x2="17" y2="39.6667" gradientUnits="userSpaceOnUse">
<stop stop-color="white"/>
<stop offset="1" stop-color="#B3F080"/>
</linearGradient>
</defs>
</svg>
