<svg width="45" height="51" viewBox="0 0 45 51" fill="none" xmlns="http://www.w3.org/2000/svg">
<path d="M1.79649 35.9736C1.26385 36.3322 0.545778 36.184 0.192675 35.6431C-0.160438 35.1022 -0.0144595 34.3729 0.518169 34.0143L7.99838 28.9718C8.3002 28.7695 8.6612 28.7294 8.98077 28.8296L28.5635 34.0403C29.0843 34.1765 29.4295 34.6533 29.4295 35.1762H29.4335V37.9448L40.8356 33.2489C41.4274 33.0065 42.104 33.295 42.3428 33.898C42.3585 33.9341 42.3704 33.9722 42.3802 34.0082L44.9191 40.9099C45.14 41.5129 44.8421 42.182 44.2523 42.4124L24.4877 50.1536C24.2865 50.2337 24.0754 50.2498 23.8762 50.2157V50.2177L5.39184 46.9562C4.76254 46.846 4.33647 46.239 4.44494 45.5999C4.55342 44.9608 5.15115 44.5281 5.78044 44.6383L23.9588 47.8457L42.3523 40.6435L40.6025 35.8855L28.7646 40.7617L28.7586 40.7657L28.7507 40.7697H28.7488L28.7429 40.7738L28.7271 40.7818L28.7212 40.7858H28.7192L28.6363 40.8278H28.6324L28.6087 40.8399H28.6067L28.6008 40.8419L28.585 40.8499L28.5772 40.8519L28.5693 40.8559L28.5614 40.8579L28.5495 40.8639H28.5456L28.5219 40.8699H28.518L28.5121 40.8719L28.4805 40.8799L28.4706 40.8819L28.4627 40.8839H28.4588L28.4548 40.8859L28.4312 40.892H28.4292L28.4055 40.898H28.3976L28.3819 40.9H28.3641L28.3542 40.902H28.3286L28.3128 40.904H13.9241C13.2849 40.904 12.7641 40.3771 12.7641 39.726C12.7641 39.0748 13.2829 38.548 13.9241 38.548H27.0801V36.1159L8.81084 31.2536L1.76039 36.0056L1.79649 35.9736ZM26.3486 5.89659C28.1832 5.89659 29.8462 6.65189 31.0495 7.87395C32.2528 9.096 32.9966 10.7829 32.9966 12.648C32.9966 14.5112 32.2528 16.2 31.0495 17.4221C29.8462 18.6441 28.1851 19.3994 26.3486 19.3994C24.512 19.3994 22.851 18.6441 21.6476 17.4221C20.4443 16.2 19.7006 14.5132 19.7006 12.648C19.7006 10.7829 20.4443 9.096 21.6476 7.87395C22.851 6.65189 24.512 5.89659 26.3486 5.89659ZM29.4102 9.53876C28.627 8.74341 27.544 8.2506 26.3486 8.2506C25.1531 8.2506 24.0701 8.74343 23.2869 9.53876C22.5038 10.3341 22.0185 11.434 22.0185 12.648C22.0185 13.8621 22.5038 14.9619 23.2869 15.7573C24.0701 16.5526 25.1511 17.0454 26.3486 17.0454C27.544 17.0454 28.627 16.5526 29.4102 15.7573C30.1933 14.9619 30.6786 13.8621 30.6786 12.648C30.6786 11.434 30.1933 10.3341 29.4102 9.53876ZM14.4392 25.2535H14.4352C14.3938 25.2535 14.3543 25.2515 14.3149 25.2475C12.4724 25.1533 10.6042 24.9229 8.69664 24.4942C8.13245 24.4161 7.6945 23.9232 7.6945 23.3282V1.96992H7.69845C7.69845 1.88578 7.70831 1.79964 7.72804 1.71349C7.8681 1.08041 8.48555 0.683756 9.10894 0.825974C10.9041 1.23467 12.6815 1.45306 14.4449 1.54117C14.4764 1.54117 14.506 1.54317 14.5396 1.54517C18.4731 1.72949 22.3415 1.2667 26.2119 0.801927C30.1829 0.32512 34.1557 -0.149697 38.2574 0.0446284H38.2613C38.3027 0.0446284 38.3422 0.0466322 38.3816 0.0506387C40.2241 0.144796 42.0923 0.375186 43.9979 0.803937C44.562 0.882067 45 1.37491 45 1.96989V23.3297H44.996C44.996 23.4139 44.9862 23.5 44.9665 23.5862C44.8264 24.2193 44.207 24.6179 43.5856 24.4737C41.7904 24.065 40.013 23.8466 38.2476 23.7585C38.218 23.7585 38.1865 23.7565 38.1549 23.7545C34.2213 23.5702 30.353 24.033 26.4826 24.4977C22.5096 24.9725 18.5388 25.4494 14.4371 25.255L14.4392 25.2535ZM13.2772 22.8214V3.82328C12.2021 3.73713 11.1152 3.6009 10.0164 3.40457V22.3765C11.1093 22.5889 12.1942 22.7311 13.2772 22.8233V22.8214ZM15.5971 3.93354V22.9378C19.1677 23.0059 22.691 22.5832 26.2125 22.1605C29.8087 21.7278 33.4068 21.297 37.1015 21.3651V2.36089C33.5309 2.29278 30.0076 2.71549 26.4862 3.14019C22.8899 3.57092 19.2918 4.00365 15.5971 3.93554V3.93354ZM39.4215 2.47711V21.4752C40.4966 21.5614 41.5835 21.6976 42.6824 21.8939V2.92197C41.5895 2.71161 40.5045 2.56737 39.4215 2.47522V2.47711Z" fill="#4EAB00"/>
</svg>
