<svg width="41" height="41" viewBox="0 0 41 41" fill="none" xmlns="http://www.w3.org/2000/svg">
<path d="M25.3235 2.41176C25.9895 2.41176 26.5294 1.87187 26.5294 1.20588C26.5294 0.539892 25.9895 0 25.3235 0C24.6575 0 24.1176 0.539892 24.1176 1.20588C24.1176 1.87187 24.6575 2.41176 25.3235 2.41176Z" fill="#4EAB00"/>
<path d="M30.147 2.41176C30.813 2.41176 31.3529 1.87187 31.3529 1.20588C31.3529 0.539892 30.813 0 30.147 0C29.4811 0 28.9412 0.539892 28.9412 1.20588C28.9412 1.87187 29.4811 2.41176 30.147 2.41176Z" fill="#4EAB00"/>
<path d="M34.9706 2.41176C35.6366 2.41176 36.1765 1.87187 36.1765 1.20588C36.1765 0.539892 35.6366 0 34.9706 0C34.3046 0 33.7647 0.539892 33.7647 1.20588C33.7647 1.87187 34.3046 2.41176 34.9706 2.41176Z" fill="#4EAB00"/>
<path d="M39.7941 2.41176C40.4601 2.41176 41 1.87187 41 1.20588C41 0.539892 40.4601 0 39.7941 0C39.1281 0 38.5883 0.539892 38.5883 1.20588C38.5883 1.87187 39.1281 2.41176 39.7941 2.41176Z" fill="#4EAB00"/>
<path d="M39.7941 7.23525C40.4601 7.23525 41 6.69536 41 6.02937C41 5.36338 40.4601 4.82349 39.7941 4.82349C39.1281 4.82349 38.5883 5.36338 38.5883 6.02937C38.5883 6.69536 39.1281 7.23525 39.7941 7.23525Z" fill="#4EAB00"/>
<path d="M39.7941 12.0587C40.4601 12.0587 41 11.5188 41 10.8529C41 10.1869 40.4601 9.64697 39.7941 9.64697C39.1281 9.64697 38.5883 10.1869 38.5883 10.8529C38.5883 11.5188 39.1281 12.0587 39.7941 12.0587Z" fill="#4EAB00"/>
<path d="M39.7941 16.8825C40.4601 16.8825 41 16.3426 41 15.6766C41 15.0106 40.4601 14.4707 39.7941 14.4707C39.1281 14.4707 38.5883 15.0106 38.5883 15.6766C38.5883 16.3426 39.1281 16.8825 39.7941 16.8825Z" fill="#4EAB00"/>
<path d="M39.7941 26.5294C40.4601 26.5294 41 25.9895 41 25.3236C41 24.6576 40.4601 24.1177 39.7941 24.1177C39.1281 24.1177 38.5883 24.6576 38.5883 25.3236C38.5883 25.9895 39.1281 26.5294 39.7941 26.5294Z" fill="#4EAB00"/>
<path d="M39.7941 31.3527C40.4601 31.3527 41 30.8128 41 30.1468C41 29.4808 40.4601 28.9409 39.7941 28.9409C39.1281 28.9409 38.5883 29.4808 38.5883 30.1468C38.5883 30.8128 39.1281 31.3527 39.7941 31.3527Z" fill="#4EAB00"/>
<path d="M39.7941 36.1764C40.4601 36.1764 41 35.6365 41 34.9705C41 34.3045 40.4601 33.7646 39.7941 33.7646C39.1281 33.7646 38.5883 34.3045 38.5883 34.9705C38.5883 35.6365 39.1281 36.1764 39.7941 36.1764Z" fill="#4EAB00"/>
<path d="M39.7941 41.0001C40.4601 41.0001 41 40.4603 41 39.7943C41 39.1283 40.4601 38.5884 39.7941 38.5884C39.1281 38.5884 38.5883 39.1283 38.5883 39.7943C38.5883 40.4603 39.1281 41.0001 39.7941 41.0001Z" fill="#4EAB00"/>
<path d="M34.9706 41.0001C35.6366 41.0001 36.1765 40.4603 36.1765 39.7943C36.1765 39.1283 35.6366 38.5884 34.9706 38.5884C34.3046 38.5884 33.7647 39.1283 33.7647 39.7943C33.7647 40.4603 34.3046 41.0001 34.9706 41.0001Z" fill="#4EAB00"/>
<path d="M30.147 41.0001C30.813 41.0001 31.3529 40.4603 31.3529 39.7943C31.3529 39.1283 30.813 38.5884 30.147 38.5884C29.4811 38.5884 28.9412 39.1283 28.9412 39.7943C28.9412 40.4603 29.4811 41.0001 30.147 41.0001Z" fill="#4EAB00"/>
<path d="M25.3235 41.0001C25.9895 41.0001 26.5294 40.4603 26.5294 39.7943C26.5294 39.1283 25.9895 38.5884 25.3235 38.5884C24.6575 38.5884 24.1176 39.1283 24.1176 39.7943C24.1176 40.4603 24.6575 41.0001 25.3235 41.0001Z" fill="#4EAB00"/>
<path d="M15.6765 41.0001C16.3425 41.0001 16.8823 40.4603 16.8823 39.7943C16.8823 39.1283 16.3425 38.5884 15.6765 38.5884C15.0105 38.5884 14.4706 39.1283 14.4706 39.7943C14.4706 40.4603 15.0105 41.0001 15.6765 41.0001Z" fill="#4EAB00"/>
<path d="M10.853 41.0001C11.519 41.0001 12.0589 40.4603 12.0589 39.7943C12.0589 39.1283 11.519 38.5884 10.853 38.5884C10.187 38.5884 9.64709 39.1283 9.64709 39.7943C9.64709 40.4603 10.187 41.0001 10.853 41.0001Z" fill="#4EAB00"/>
<path d="M6.02943 41.0001C6.69542 41.0001 7.23531 40.4603 7.23531 39.7943C7.23531 39.1283 6.69542 38.5884 6.02943 38.5884C5.36344 38.5884 4.82355 39.1283 4.82355 39.7943C4.82355 40.4603 5.36344 41.0001 6.02943 41.0001Z" fill="#4EAB00"/>
<path d="M1.20588 41.0001C1.87187 41.0001 2.41176 40.4603 2.41176 39.7943C2.41176 39.1283 1.87187 38.5884 1.20588 38.5884C0.539892 38.5884 0 39.1283 0 39.7943C0 40.4603 0.539892 41.0001 1.20588 41.0001Z" fill="#4EAB00"/>
<path d="M1.20588 36.1764C1.87187 36.1764 2.41176 35.6365 2.41176 34.9705C2.41176 34.3045 1.87187 33.7646 1.20588 33.7646C0.539892 33.7646 0 34.3045 0 34.9705C0 35.6365 0.539892 36.1764 1.20588 36.1764Z" fill="#4EAB00"/>
<path d="M1.20588 31.3527C1.87187 31.3527 2.41176 30.8128 2.41176 30.1468C2.41176 29.4808 1.87187 28.9409 1.20588 28.9409C0.539892 28.9409 0 29.4808 0 30.1468C0 30.8128 0.539892 31.3527 1.20588 31.3527Z" fill="#4EAB00"/>
<path d="M1.20588 26.5294C1.87187 26.5294 2.41176 25.9895 2.41176 25.3236C2.41176 24.6576 1.87187 24.1177 1.20588 24.1177C0.539892 24.1177 0 24.6576 0 25.3236C0 25.9895 0.539892 26.5294 1.20588 26.5294Z" fill="#4EAB00"/>
<path d="M1.20588 16.8825C1.87187 16.8825 2.41176 16.3426 2.41176 15.6766C2.41176 15.0106 1.87187 14.4707 1.20588 14.4707C0.539892 14.4707 0 15.0106 0 15.6766C0 16.3426 0.539892 16.8825 1.20588 16.8825Z" fill="#4EAB00"/>
<path d="M1.20588 12.0587C1.87187 12.0587 2.41176 11.5188 2.41176 10.8529C2.41176 10.1869 1.87187 9.64697 1.20588 9.64697C0.539892 9.64697 0 10.1869 0 10.8529C0 11.5188 0.539892 12.0587 1.20588 12.0587Z" fill="#4EAB00"/>
<path d="M1.20588 7.23525C1.87187 7.23525 2.41176 6.69536 2.41176 6.02937C2.41176 5.36338 1.87187 4.82349 1.20588 4.82349C0.539892 4.82349 0 5.36338 0 6.02937C0 6.69536 0.539892 7.23525 1.20588 7.23525Z" fill="#4EAB00"/>
<path d="M1.20588 2.41176C1.87187 2.41176 2.41176 1.87187 2.41176 1.20588C2.41176 0.539892 1.87187 0 1.20588 0C0.539892 0 0 0.539892 0 1.20588C0 1.87187 0.539892 2.41176 1.20588 2.41176Z" fill="#4EAB00"/>
<path d="M6.02943 2.41176C6.69542 2.41176 7.23531 1.87187 7.23531 1.20588C7.23531 0.539892 6.69542 0 6.02943 0C5.36344 0 4.82355 0.539892 4.82355 1.20588C4.82355 1.87187 5.36344 2.41176 6.02943 2.41176Z" fill="#4EAB00"/>
<path d="M10.853 2.41176C11.519 2.41176 12.0589 1.87187 12.0589 1.20588C12.0589 0.539892 11.519 0 10.853 0C10.187 0 9.64709 0.539892 9.64709 1.20588C9.64709 1.87187 10.187 2.41176 10.853 2.41176Z" fill="#4EAB00"/>
<path d="M15.6765 2.41176C16.3425 2.41176 16.8823 1.87187 16.8823 1.20588C16.8823 0.539892 16.3425 0 15.6765 0C15.0105 0 14.4706 0.539892 14.4706 1.20588C14.4706 1.87187 15.0105 2.41176 15.6765 2.41176Z" fill="#4EAB00"/>
<path d="M39.7941 19.2941H21.7059V1.20588C21.7059 0.530588 21.1753 0 20.5 0C19.8247 0 19.2941 0.530588 19.2941 1.20588V19.2941H1.20588C0.530588 19.2941 0 19.8247 0 20.5C0 21.1753 0.530588 21.7059 1.20588 21.7059H19.2941V39.7941C19.2941 40.4694 19.8247 41 20.5 41C21.1753 41 21.7059 40.4694 21.7059 39.7941V21.7059H39.7941C40.4694 21.7059 41 21.1753 41 20.5C41 19.8247 40.4694 19.2941 39.7941 19.2941Z" fill="#4EAB00"/>
</svg>
