<svg width="148" height="42" viewBox="0 0 148 42" fill="none" xmlns="http://www.w3.org/2000/svg">
<path d="M147.761 37.3736C147.761 39.674 145.859 41.5373 143.506 41.5373H4.26053C1.90886 41.5373 0 39.674 0 37.3736V4.16917C0 1.86988 1.90886 0 4.26053 0H143.505C145.859 0 147.76 1.86988 147.76 4.16917L147.761 37.3736Z" fill="black"/>
<path d="M32.5163 20.5354C32.4842 17.0573 35.4372 15.3652 35.5723 15.2864C33.8999 12.909 31.3077 12.5842 30.3968 12.5583C28.2196 12.3349 26.1078 13.8285 24.9988 13.8285C23.8676 13.8285 22.1598 12.5799 20.3191 12.6166C17.9505 12.6522 15.7346 13.9893 14.5193 16.0656C12.0113 20.2991 13.8818 26.5204 16.2847 29.9424C17.4867 31.6184 18.8913 33.4896 20.7297 33.4238C22.5283 33.3515 23.2002 32.3058 25.3707 32.3058C27.5212 32.3058 28.1521 33.4238 30.0271 33.3817C31.9574 33.3515 33.1727 31.6982 34.3326 30.0072C35.7217 28.0863 36.2795 26.1945 36.3017 26.0974C36.2563 26.0823 32.5529 24.7042 32.5163 20.5354Z" fill="white"/>
<path d="M28.9745 10.3072C29.9419 9.12768 30.6037 7.52298 30.42 5.89453C29.0199 5.95496 27.2689 6.83879 26.2605 7.99241C25.3684 9.00898 24.5715 10.6752 24.7774 12.2421C26.3502 12.3565 27.9651 11.4684 28.9745 10.3072Z" fill="white"/>
<path d="M58.5455 33.1837H56.0319L54.6551 28.9653H49.8691L48.5575 33.1837H46.1104L50.852 18.8223H53.7807L58.5455 33.1837ZM54.24 27.1954L52.9948 23.4454C52.8631 23.0623 52.6163 22.1601 52.2521 20.7399H52.2079C52.0629 21.3507 51.8293 22.2529 51.5083 23.4454L50.2853 27.1954H54.24Z" fill="white"/>
<path d="M70.7394 27.8783C70.7394 29.6395 70.2513 31.0316 69.2751 32.0535C68.4007 32.9633 67.3149 33.4176 66.0188 33.4176C64.6198 33.4176 63.6148 32.9276 63.0027 31.9478H62.9585V37.4029H60.5987V26.2369C60.5987 25.1297 60.5688 23.9933 60.5113 22.8278H62.5866L62.7183 24.4692H62.7625C63.5495 23.2325 64.7438 22.6152 66.3465 22.6152C67.5994 22.6152 68.6453 23.0976 69.4821 24.0635C70.3211 25.0304 70.7394 26.3016 70.7394 27.8783ZM68.3354 27.9625C68.3354 26.9545 68.103 26.1236 67.6359 25.4696C67.1257 24.7876 66.4405 24.4466 65.5816 24.4466C64.9994 24.4466 64.4704 24.6365 63.9978 25.011C63.524 25.3887 63.2141 25.8818 63.0691 26.4926C62.9961 26.7775 62.9596 27.0106 62.9596 27.1941V28.9207C62.9596 29.674 63.1964 30.3096 63.6701 30.8287C64.1439 31.3478 64.7593 31.6068 65.5163 31.6068C66.4051 31.6068 67.0969 31.2722 67.5916 30.6053C68.0875 29.9373 68.3354 29.0567 68.3354 27.9625Z" fill="white"/>
<path d="M82.9555 27.8783C82.9555 29.6395 82.4674 31.0316 81.4901 32.0535C80.6168 32.9633 79.531 33.4176 78.2349 33.4176C76.8359 33.4176 75.8309 32.9276 75.2199 31.9478H75.1756V37.4029H72.8159V26.2369C72.8159 25.1297 72.786 23.9933 72.7284 22.8278H74.8037L74.9354 24.4692H74.9797C75.7656 23.2325 76.9598 22.6152 78.5636 22.6152C79.8154 22.6152 80.8614 23.0976 81.7004 24.0635C82.536 25.0304 82.9555 26.3016 82.9555 27.8783ZM80.5515 27.9625C80.5515 26.9545 80.3179 26.1236 79.8509 25.4696C79.3406 24.7876 78.6577 24.4466 77.7977 24.4466C77.2144 24.4466 76.6864 24.6365 76.2127 25.011C75.739 25.3887 75.4302 25.8818 75.2852 26.4926C75.2132 26.7775 75.1756 27.0106 75.1756 27.1941V28.9207C75.1756 29.674 75.4125 30.3096 75.884 30.8287C76.3577 31.3467 76.9731 31.6068 77.7324 31.6068C78.6212 31.6068 79.3129 31.2722 79.8077 30.6053C80.3036 29.9373 80.5515 29.0567 80.5515 27.9625Z" fill="white"/>
<path d="M96.6138 29.1558C96.6138 30.3774 96.1788 31.3713 95.3055 32.1385C94.3459 32.9771 93.0099 33.3958 91.2932 33.3958C89.7083 33.3958 88.4376 33.0979 87.4758 32.5011L88.0226 30.5835C89.0586 31.1943 90.1953 31.5008 91.4338 31.5008C92.3226 31.5008 93.0144 31.3044 93.5113 30.9137C94.0061 30.5231 94.2529 29.9986 94.2529 29.3446C94.2529 28.7619 94.0492 28.2709 93.6408 27.8726C93.2346 27.4744 92.5561 27.1043 91.6087 26.7622C89.0298 25.8244 87.7414 24.4506 87.7414 22.6441C87.7414 21.4635 88.193 20.4955 89.0973 19.7423C89.9983 18.988 91.2003 18.6113 92.7033 18.6113C94.0437 18.6113 95.1572 18.839 96.046 19.2934L95.456 21.1689C94.6259 20.7286 93.6873 20.5085 92.6369 20.5085C91.8068 20.5085 91.1582 20.7081 90.6933 21.1053C90.3004 21.4603 90.1034 21.893 90.1034 22.4056C90.1034 22.9733 90.3281 23.4427 90.7797 23.8118C91.1726 24.1528 91.8865 24.5219 92.9225 24.9201C94.1898 25.4176 95.1207 25.9992 95.7194 26.6661C96.316 27.3309 96.6138 28.1629 96.6138 29.1558Z" fill="white"/>
<path d="M104.416 24.555H101.815V29.5827C101.815 30.8615 102.273 31.5004 103.192 31.5004C103.613 31.5004 103.963 31.4648 104.24 31.3936L104.305 33.1407C103.84 33.3102 103.228 33.3954 102.47 33.3954C101.538 33.3954 100.81 33.1181 100.284 32.5645C99.7605 32.0098 99.4971 31.0795 99.4971 29.7727V24.5528H97.9475V22.8262H99.4971V20.9301L101.815 20.248V22.8262H104.416V24.555Z" fill="white"/>
<path d="M116.151 27.9203C116.151 29.512 115.684 30.8189 114.752 31.8408C113.775 32.893 112.478 33.4175 110.861 33.4175C109.302 33.4175 108.062 32.9135 107.136 31.9056C106.211 30.8977 105.748 29.6253 105.748 28.0918C105.748 26.4871 106.224 25.1727 107.18 24.1508C108.133 23.1277 109.419 22.6162 111.036 22.6162C112.594 22.6162 113.848 23.1202 114.794 24.1292C115.7 25.108 116.151 26.3717 116.151 27.9203ZM113.703 27.9947C113.703 27.0397 113.494 26.2206 113.07 25.5375C112.575 24.7109 111.868 24.2986 110.952 24.2986C110.003 24.2986 109.283 24.7119 108.788 25.5375C108.364 26.2217 108.155 27.0537 108.155 28.0379C108.155 28.9929 108.364 29.812 108.788 30.494C109.298 31.3207 110.011 31.7329 110.931 31.7329C111.832 31.7329 112.539 31.312 113.049 30.4725C113.484 29.7764 113.703 28.9487 113.703 27.9947Z" fill="white"/>
<path d="M123.822 24.8512C123.588 24.8092 123.339 24.7876 123.078 24.7876C122.248 24.7876 121.606 25.093 121.154 25.7049C120.761 26.2444 120.564 26.9265 120.564 27.7499V33.1834H118.206L118.228 26.089C118.228 24.8955 118.198 23.8088 118.139 22.8289H120.195L120.281 24.8102H120.346C120.595 24.1293 120.988 23.5811 121.526 23.1699C122.052 22.7998 122.62 22.6152 123.232 22.6152C123.45 22.6152 123.647 22.6303 123.822 22.6573V24.8512Z" fill="white"/>
<path d="M134.375 27.5156C134.375 27.9278 134.348 28.2753 134.289 28.5591H127.21C127.237 29.5822 127.579 30.3645 128.237 30.9041C128.833 31.3865 129.605 31.6282 130.552 31.6282C131.6 31.6282 132.557 31.4653 133.417 31.1383L133.786 32.7355C132.781 33.1628 131.595 33.3754 130.226 33.3754C128.579 33.3754 127.286 32.9027 126.345 31.9585C125.407 31.0142 124.936 29.7462 124.936 28.1555C124.936 26.594 125.373 25.2936 126.249 24.2565C127.165 23.1493 128.404 22.5957 129.962 22.5957C131.493 22.5957 132.652 23.1493 133.439 24.2565C134.062 25.136 134.375 26.2238 134.375 27.5156ZM132.125 26.9188C132.141 26.2368 131.987 25.6476 131.667 25.1501C131.258 24.5101 130.631 24.1907 129.786 24.1907C129.015 24.1907 128.387 24.5026 127.908 25.1285C127.515 25.626 127.282 26.2227 127.21 26.9177H132.125V26.9188Z" fill="white"/>
<path d="M53.4597 9.98661C53.4597 11.2568 53.069 12.2129 52.2887 12.855C51.5659 13.4475 50.5388 13.7442 49.2084 13.7442C48.5487 13.7442 47.9842 13.7162 47.5116 13.6601V6.72001C48.1281 6.62288 48.7922 6.57324 49.5095 6.57324C50.7768 6.57324 51.732 6.84195 52.3761 7.37937C53.0978 7.98694 53.4597 8.85566 53.4597 9.98661ZM52.2367 10.0179C52.2367 9.19451 52.0131 8.56321 51.5659 8.12291C51.1188 7.68369 50.4658 7.46355 49.6057 7.46355C49.2405 7.46355 48.9295 7.48729 48.6716 7.53693V12.8129C48.8144 12.8345 49.0756 12.8442 49.4552 12.8442C50.3429 12.8442 51.028 12.6036 51.5106 12.1223C51.9932 11.641 52.2367 10.9395 52.2367 10.0179Z" fill="white"/>
<path d="M59.9446 11.0963C59.9446 11.8787 59.7155 12.5197 59.2573 13.0226C58.7769 13.5395 58.1405 13.7974 57.3458 13.7974C56.5799 13.7974 55.97 13.5503 55.5151 13.0539C55.0613 12.5585 54.8344 11.9337 54.8344 11.1805C54.8344 10.3927 55.068 9.74627 55.5372 9.24446C56.0065 8.74265 56.6374 8.49121 57.4321 8.49121C58.1981 8.49121 58.8135 8.73834 59.2794 9.23367C59.7222 9.71497 59.9446 10.3366 59.9446 11.0963ZM58.7415 11.133C58.7415 10.6636 58.6375 10.261 58.4305 9.92541C58.187 9.51965 57.8406 9.31676 57.3901 9.31676C56.9241 9.31676 56.5699 9.51965 56.3264 9.92541C56.1183 10.261 56.0154 10.67 56.0154 11.1535C56.0154 11.6229 56.1194 12.0254 56.3264 12.3611C56.5777 12.7668 56.9274 12.9697 57.379 12.9697C57.8217 12.9697 58.1693 12.7636 58.4194 12.3503C58.6341 12.0082 58.7415 11.6024 58.7415 11.133Z" fill="white"/>
<path d="M68.6398 8.59375L67.0073 13.6809H65.9447L65.2684 11.4719C65.0969 10.9204 64.9574 10.3722 64.8489 9.8283H64.8279C64.7272 10.3873 64.5877 10.9344 64.4084 11.4719L63.6901 13.6809H62.6154L61.0802 8.59375H62.2723L62.8622 11.0121C63.005 11.5841 63.1223 12.1291 63.2164 12.6449H63.2374C63.3237 12.2197 63.4665 11.678 63.668 11.0229L64.4084 8.59483H65.3537L66.0631 10.9711C66.2347 11.5506 66.3741 12.1086 66.4815 12.646H66.5136C66.5922 12.1226 66.7106 11.5647 66.8678 10.9711L67.5009 8.59483H68.6398V8.59375Z" fill="white"/>
<path d="M74.6533 13.6813H73.4933V10.7676C73.4933 9.8697 73.1435 9.42077 72.4418 9.42077C72.0976 9.42077 71.8198 9.5438 71.604 9.79093C71.3903 10.0381 71.2819 10.3294 71.2819 10.6629V13.6802H70.1219V10.0478C70.1219 9.60099 70.1075 9.11645 70.0799 8.59198H71.0992L71.1535 9.38732H71.1856C71.3206 9.14019 71.5221 8.93623 71.7866 8.77328C72.1009 8.58335 72.4529 8.4873 72.8381 8.4873C73.3251 8.4873 73.7302 8.64054 74.0523 8.9481C74.4529 9.32473 74.6533 9.88697 74.6533 10.6337V13.6813Z" fill="white"/>
<path d="M77.852 13.6821H76.6931V6.26074H77.852V13.6821Z" fill="white"/>
<path d="M84.6811 11.0963C84.6811 11.8787 84.452 12.5197 83.9938 13.0226C83.5134 13.5395 82.8759 13.7974 82.0823 13.7974C81.3153 13.7974 80.7054 13.5503 80.2516 13.0539C79.7978 12.5585 79.5709 11.9337 79.5709 11.1805C79.5709 10.3927 79.8044 9.74627 80.2737 9.24446C80.743 8.74265 81.3739 8.49121 82.1675 8.49121C82.9345 8.49121 83.5488 8.73834 84.0159 9.23367C84.4586 9.71497 84.6811 10.3366 84.6811 11.0963ZM83.4769 11.133C83.4769 10.6636 83.3728 10.261 83.1659 9.92541C82.9235 9.51965 82.5759 9.31676 82.1266 9.31676C81.6595 9.31676 81.3053 9.51965 81.0629 9.92541C80.8548 10.261 80.7519 10.67 80.7519 11.1535C80.7519 11.6229 80.8559 12.0254 81.0629 12.3611C81.3141 12.7668 81.6639 12.9697 82.1155 12.9697C82.5582 12.9697 82.9047 12.7636 83.1548 12.3503C83.3706 12.0082 83.4769 11.6024 83.4769 11.133Z" fill="white"/>
<path d="M90.2949 13.6819H89.2534L89.1671 13.096H89.135C88.7786 13.5632 88.2705 13.7974 87.6109 13.7974C87.1183 13.7974 86.7199 13.6431 86.4199 13.3366C86.1476 13.0582 86.0115 12.7118 86.0115 12.3006C86.0115 11.679 86.2771 11.2053 86.8117 10.8772C87.3452 10.5492 88.0957 10.3884 89.0619 10.3959V10.301C89.0619 9.6308 88.7011 9.29626 87.9783 9.29626C87.4637 9.29626 87.0099 9.42252 86.618 9.67289L86.3823 8.93043C86.8671 8.63798 87.4659 8.49121 88.172 8.49121C89.5356 8.49121 90.2197 9.19266 90.2197 10.5956V12.469C90.2197 12.9773 90.2451 13.3819 90.2949 13.6819ZM89.0907 11.9337V11.1492C87.8112 11.1276 87.1715 11.4697 87.1715 12.1744C87.1715 12.4398 87.2445 12.6384 87.3939 12.7711C87.5434 12.9039 87.7337 12.9697 87.9606 12.9697C88.2152 12.9697 88.4532 12.8909 88.6701 12.7345C88.8881 12.5769 89.0221 12.3773 89.0719 12.1323C89.0841 12.0772 89.0907 12.0103 89.0907 11.9337Z" fill="white"/>
<path d="M96.8861 13.6821H95.8567L95.8025 12.8652H95.7704C95.4417 13.4868 94.8816 13.7976 94.0947 13.7976C93.466 13.7976 92.9425 13.5569 92.5274 13.0756C92.1123 12.5943 91.9054 11.9695 91.9054 11.2022C91.9054 10.3788 92.1301 9.71188 92.5816 9.20252C93.0188 8.72769 93.5545 8.49028 94.1921 8.49028C94.8927 8.49028 95.383 8.72014 95.6619 9.18094H95.6841V6.26074H96.8451V12.3116C96.8451 12.8069 96.8584 13.2634 96.8861 13.6821ZM95.6841 11.5367V10.6885C95.6841 10.5418 95.673 10.423 95.652 10.3324C95.5867 10.0605 95.4461 9.83167 95.2325 9.64713C95.0166 9.4626 94.7565 9.36979 94.4566 9.36979C94.0238 9.36979 93.6851 9.53706 93.4361 9.87268C93.1893 10.2083 93.0642 10.6367 93.0642 11.1601C93.0642 11.663 93.1826 12.0709 93.4206 12.385C93.6719 12.7195 94.0105 12.8868 94.4345 12.8868C94.8152 12.8868 95.1196 12.7475 95.3509 12.468C95.5745 12.2101 95.6841 11.8993 95.6841 11.5367Z" fill="white"/>
<path d="M106.807 11.0963C106.807 11.8787 106.577 12.5197 106.119 13.0226C105.639 13.5395 105.004 13.7974 104.208 13.7974C103.443 13.7974 102.833 13.5503 102.377 13.0539C101.923 12.5585 101.696 11.9337 101.696 11.1805C101.696 10.3927 101.93 9.74627 102.399 9.24446C102.868 8.74265 103.499 8.49121 104.295 8.49121C105.06 8.49121 105.677 8.73834 106.141 9.23367C106.584 9.71497 106.807 10.3366 106.807 11.0963ZM105.605 11.133C105.605 10.6636 105.501 10.261 105.294 9.92541C105.049 9.51965 104.704 9.31676 104.252 9.31676C103.787 9.31676 103.433 9.51965 103.188 9.92541C102.98 10.261 102.877 10.67 102.877 11.1535C102.877 11.6229 102.981 12.0254 103.188 12.3611C103.44 12.7668 103.789 12.9697 104.241 12.9697C104.684 12.9697 105.032 12.7636 105.282 12.3503C105.496 12.0082 105.605 11.6024 105.605 11.133Z" fill="white"/>
<path d="M113.044 13.6813H111.885V10.7676C111.885 9.8697 111.535 9.42077 110.832 9.42077C110.488 9.42077 110.21 9.5438 109.995 9.79093C109.781 10.0381 109.673 10.3294 109.673 10.6629V13.6802H108.512V10.0478C108.512 9.60099 108.499 9.11645 108.471 8.59198H109.489L109.544 9.38732H109.576C109.712 9.14019 109.913 8.93623 110.177 8.77328C110.492 8.58335 110.843 8.4873 111.229 8.4873C111.715 8.4873 112.12 8.64054 112.443 8.9481C112.844 9.32473 113.044 9.88697 113.044 10.6337V13.6813Z" fill="white"/>
<path d="M120.85 9.44122H119.573V11.9125C119.573 12.5406 119.8 12.8546 120.249 12.8546C120.457 12.8546 120.63 12.8373 120.766 12.8017L120.796 13.6596C120.567 13.7438 120.266 13.7859 119.895 13.7859C119.437 13.7859 119.08 13.6499 118.822 13.378C118.563 13.106 118.435 12.6485 118.435 12.0064V9.44122H117.672V8.59408H118.435V7.66169L119.572 7.32715V8.593H120.849V9.44122H120.85Z" fill="white"/>
<path d="M126.991 13.6821H125.83V10.79C125.83 9.87807 125.48 9.42159 124.779 9.42159C124.241 9.42159 123.874 9.68598 123.672 10.2148C123.638 10.3259 123.618 10.4619 123.618 10.6216V13.681H122.459V6.26074H123.618V9.32662H123.64C124.006 8.7687 124.529 8.49028 125.208 8.49028C125.688 8.49028 126.085 8.64352 126.401 8.95108C126.794 9.33418 126.991 9.90397 126.991 10.6572V13.6821Z" fill="white"/>
<path d="M133.325 10.8967C133.325 11.0996 133.309 11.2701 133.282 11.4093H129.803C129.819 11.9122 129.985 12.2953 130.307 12.5608C130.601 12.7982 130.981 12.9169 131.446 12.9169C131.96 12.9169 132.43 12.837 132.852 12.6762L133.034 13.4619C132.539 13.6712 131.957 13.7759 131.283 13.7759C130.475 13.7759 129.838 13.5439 129.378 13.0798C128.915 12.6158 128.686 11.9931 128.686 11.2118C128.686 10.4445 128.9 9.80567 129.33 9.29631C129.78 8.75242 130.387 8.48047 131.155 8.48047C131.905 8.48047 132.475 8.75242 132.86 9.29631C133.171 9.72797 133.325 10.2622 133.325 10.8967ZM132.218 10.6042C132.227 10.2686 132.151 9.97942 131.993 9.73553C131.792 9.42149 131.485 9.26394 131.07 9.26394C130.692 9.26394 130.383 9.41718 130.147 9.72474C129.955 9.9697 129.841 10.2622 129.803 10.6042H132.218Z" fill="white"/>
</svg>
