<svg width="79" height="20" viewBox="0 0 79 20" fill="none" xmlns="http://www.w3.org/2000/svg">
<path d="M6.73979 2.54178L0 19.3906H5.25468L6.51121 15.8779H14.1645L15.3923 19.3906H20.647L13.9361 2.51337C13.2505 0.799849 12.2511 0 10.3379 0C8.42457 0 7.42519 0.799849 6.73979 2.54178ZM7.91045 11.937L10.0522 5.85422C10.1094 5.71168 10.1949 5.59739 10.3379 5.59739C10.4521 5.59739 10.5664 5.65453 10.6235 5.85422L12.7653 11.937H7.9106H7.91045ZM36.3533 0.257299H19.3614V4.16943H25.5872V19.3906H30.1846V4.16943H36.3533V0.257299ZM49.204 0.257299H39.1805V19.3906H43.7779V13.1364H46.2909L50.4891 19.3906H56.2573L51.8023 12.8226C54.4012 12.08 55.6577 9.99539 55.6577 6.31137C55.6577 1.97066 53.4588 0.257455 49.204 0.257455V0.257299ZM43.778 9.19555V4.16943H48.604C50.1175 4.16943 50.9461 4.96913 50.9461 6.51137C50.9461 8.39601 50.1175 9.1957 48.604 9.1957H43.778V9.19555ZM64.3965 2.54178L57.6567 19.3906H62.9114L64.1679 15.8779H71.8212L73.049 19.3906H78.3037L71.5928 2.51337C70.9072 0.799849 69.9078 0 67.9946 0C66.0812 0 65.0819 0.799849 64.3965 2.54178ZM65.5671 11.937L67.7089 5.85422C67.766 5.71168 67.8516 5.59739 67.9946 5.59739C68.1087 5.59739 68.223 5.65453 68.2802 5.85422L70.422 11.937H65.5673H65.5671Z" fill="#84BD54"/>
</svg>
