<svg width="150" height="44" viewBox="0 0 150 44" fill="none" xmlns="http://www.w3.org/2000/svg">
<path d="M143.69 43.1662H5.52653C2.48832 43.1662 0 40.7368 0 37.7705V5.39578C0 2.42945 2.48832 -1.93915e-06 5.52653 -1.93915e-06H143.69C146.728 -1.93915e-06 149.216 2.42945 149.216 5.39578V37.7705C149.216 40.7368 146.728 43.1662 143.69 43.1662Z" fill="black"/>
<path d="M52.4108 11.0556C52.4108 11.9567 52.1345 12.6784 51.5901 13.2166C50.9642 13.8547 50.1491 14.1757 49.1502 14.1757C48.1955 14.1757 47.3803 13.8493 46.7116 13.2058C46.0415 12.5529 45.7071 11.7517 45.7071 10.7926C45.7071 9.83345 46.0415 9.03218 46.7116 8.38469C47.3803 7.73585 48.1955 7.4094 49.1502 7.4094C49.6254 7.4094 50.0786 7.50518 50.5111 7.68324C50.9421 7.86265 51.2931 8.10546 51.5473 8.40492L50.9698 8.97418C50.5263 8.46293 49.9225 8.21068 49.1502 8.21068C48.4538 8.21068 47.85 8.44809 47.3375 8.92696C46.8304 9.40719 46.5762 10.0291 46.5762 10.7926C46.5762 11.5561 46.8304 12.1833 47.3375 12.6635C47.85 13.137 48.4538 13.3798 49.1502 13.3798C49.8893 13.3798 50.5111 13.137 51.0016 12.6581C51.3249 12.3411 51.5086 11.9041 51.557 11.3456H49.1502V10.5659H52.3611C52.3998 10.7345 52.4108 10.8978 52.4108 11.0556Z" fill="white"/>
<path d="M57.5049 8.35139H54.4888V10.4018H57.2078V11.1815H54.4888V13.2319H57.5049V14.0264H53.6349V7.55686H57.5049V8.35139Z" fill="white"/>
<path d="M61.0999 14.0264H60.246V8.35139H58.396V7.55686H62.9513V8.35139H61.0999V14.0264Z" fill="white"/>
<path d="M66.2479 14.0264V7.55686H67.1003V14.0264H66.2479Z" fill="white"/>
<path d="M70.879 14.0264H70.0321V8.35139H68.1752V7.55686H72.736V8.35139H70.879V14.0264Z" fill="white"/>
<path d="M81.3601 13.195C80.7066 13.8493 79.897 14.1757 78.9312 14.1757C77.9599 14.1757 77.1503 13.8493 76.4968 13.195C75.8447 12.5421 75.52 11.7409 75.52 10.7926C75.52 9.84425 75.8447 9.04297 76.4968 8.39008C77.1503 7.73585 77.9599 7.4094 78.9312 7.4094C79.8915 7.4094 80.7011 7.73585 81.3546 8.39548C82.0123 9.05376 82.337 9.84964 82.337 10.7926C82.337 11.7409 82.0123 12.5421 81.3601 13.195ZM77.1282 12.6527C77.6201 13.137 78.2183 13.3798 78.9312 13.3798C79.6386 13.3798 80.2424 13.137 80.7287 12.6527C81.2192 12.1685 81.4679 11.5466 81.4679 10.7926C81.4679 10.0385 81.2192 9.41663 80.7287 8.93236C80.2424 8.44809 79.6386 8.20528 78.9312 8.20528C78.2183 8.20528 77.6201 8.44809 77.1282 8.93236C76.6377 9.41663 76.389 10.0385 76.389 10.7926C76.389 11.5466 76.6377 12.1685 77.1282 12.6527Z" fill="white"/>
<path d="M83.5348 14.0264V7.55686H84.571L87.793 12.5884H87.8303L87.793 11.3447V7.55686H88.6455V14.0264H87.7557L84.3818 8.74663H84.3445L84.3818 9.99575V14.0264H83.5348Z" fill="white"/>
<path d="M75.3099 23.475C72.7139 23.475 70.5931 25.404 70.5931 28.0655C70.5931 30.7054 72.7139 32.6546 75.3099 32.6546C77.9116 32.6546 80.0324 30.7054 80.0324 28.0655C80.0324 25.404 77.9116 23.475 75.3099 23.475ZM75.3099 30.847C73.8855 30.847 72.66 29.699 72.66 28.0655C72.66 26.4103 73.8855 25.2826 75.3099 25.2826C76.7344 25.2826 77.9654 26.4103 77.9654 28.0655C77.9654 29.699 76.7344 30.847 75.3099 30.847ZM65.0182 23.475C62.4166 23.475 60.3013 25.404 60.3013 28.0655C60.3013 30.7054 62.4166 32.6546 65.0182 32.6546C67.6184 32.6546 69.7351 30.7054 69.7351 28.0655C69.7351 25.404 67.6184 23.475 65.0182 23.475ZM65.0182 30.847C63.5923 30.847 62.3627 29.699 62.3627 28.0655C62.3627 26.4103 63.5923 25.2826 65.0182 25.2826C66.4426 25.2826 67.6681 26.4103 67.6681 28.0655C67.6681 29.699 66.4426 30.847 65.0182 30.847ZM52.7714 24.882V26.8325H57.5422C57.4026 27.9225 57.0296 28.7238 56.4576 29.2822C55.7612 29.9567 54.6767 30.7054 52.7714 30.7054C49.8354 30.7054 47.5364 28.3919 47.5364 25.5254C47.5364 22.6589 49.8354 20.3455 52.7714 20.3455C54.3589 20.3455 55.5139 20.9511 56.3664 21.7362L57.7743 20.3617C56.5819 19.2501 54.9958 18.3962 52.7714 18.3962C48.7453 18.3962 45.3617 21.5946 45.3617 25.5254C45.3617 29.4562 48.7453 32.6546 52.7714 32.6546C54.9475 32.6546 56.5819 31.9585 57.8669 30.6528C59.1835 29.3672 59.5939 27.5596 59.5939 26.1001C59.5939 25.6468 59.5552 25.23 59.4861 24.882H52.7714ZM102.85 26.3941C102.462 25.3676 101.264 23.475 98.8239 23.475C96.4061 23.475 94.393 25.3352 94.393 28.0655C94.393 30.6366 96.3853 32.6546 99.056 32.6546C101.216 32.6546 102.462 31.369 102.974 30.6204L101.372 29.5776C100.837 30.3411 100.109 30.847 99.056 30.847C98.0101 30.847 97.2599 30.3789 96.7791 29.4562L103.067 26.9162L102.85 26.3941ZM96.4392 27.9225C96.3853 26.1527 97.8471 25.2462 98.8944 25.2462C99.7151 25.2462 100.411 25.6468 100.644 26.2201L96.4392 27.9225ZM91.3286 32.3754H93.3955V18.8859H91.3286V32.3754ZM87.9436 24.4975H87.8745C87.4103 23.9606 86.5246 23.475 85.4028 23.475C83.0485 23.475 80.8959 25.493 80.8959 28.0803C80.8959 30.6528 83.0485 32.6546 85.4028 32.6546C86.5246 32.6546 87.4103 32.1649 87.8745 31.6119H87.9436V32.2701C87.9436 34.0251 86.9833 34.968 85.4345 34.968C84.1717 34.968 83.3883 34.0777 83.065 33.3291L81.2675 34.0615C81.7856 35.2783 83.1576 36.7756 85.4345 36.7756C87.8579 36.7756 89.9027 35.3835 89.9027 31.9963V23.7542H87.9436V24.4975ZM85.5796 30.847C84.1551 30.847 82.9628 29.6829 82.9628 28.0803C82.9628 26.4629 84.1551 25.2826 85.5796 25.2826C86.9833 25.2826 88.09 26.4629 88.09 28.0803C88.09 29.6829 86.9833 30.847 85.5796 30.847ZM112.527 18.8859H107.583V32.3754H109.645V27.2642H112.527C114.816 27.2642 117.061 25.6468 117.061 23.0744C117.061 20.5033 114.811 18.8859 112.527 18.8859ZM112.581 25.3878H109.645V20.7623H112.581C114.12 20.7623 114.999 22.0101 114.999 23.0744C114.999 24.1185 114.12 25.3878 112.581 25.3878ZM125.324 23.4494C123.834 23.4494 122.285 24.0915 121.648 25.5146L123.478 26.2633C123.872 25.5146 124.595 25.2718 125.361 25.2718C126.43 25.2718 127.515 25.8991 127.531 27.0066V27.1482C127.158 26.9378 126.36 26.6262 125.377 26.6262C123.407 26.6262 121.4 27.6851 121.4 29.6613C121.4 31.4689 123.014 32.633 124.828 32.633C126.215 32.633 126.98 32.0219 127.461 31.311H127.531V32.3538H129.522V27.1792C129.522 24.7875 127.693 23.4494 125.324 23.4494ZM125.075 30.8416C124.401 30.8416 123.461 30.5152 123.461 29.699C123.461 28.655 124.633 28.2543 125.647 28.2543C126.555 28.2543 126.98 28.4499 127.531 28.7076C127.37 29.9567 126.269 30.8416 125.075 30.8416ZM136.776 23.7448L134.406 29.5925H134.336L131.886 23.7448H129.663L133.344 31.9167L131.244 36.464H133.398L139.069 23.7448H136.776ZM118.194 32.3754H120.261V18.8859H118.194V32.3754Z" fill="white"/>
<path d="M11.5339 8.13609C11.2092 8.46793 11.0213 8.98458 11.0213 9.65365V33.5192C11.0213 34.1883 11.2092 34.7049 11.5339 35.0368L11.614 35.1096L25.3115 21.7416V21.4259L11.614 8.05785L11.5339 8.13609Z" fill="url(#paint0_linear_188_695)"/>
<path d="M29.8722 26.1994L25.3115 21.7412V21.4255L29.8778 16.9673L29.98 17.0253L35.3877 20.0294C36.931 20.8819 36.931 22.2848 35.3877 23.1427L29.98 26.1414L29.8722 26.1994Z" fill="url(#paint1_linear_188_695)"/>
<path d="M29.98 26.1414L25.3115 21.5834L11.5339 35.0364C12.0464 35.5625 12.8823 35.6259 13.8329 35.0998L29.98 26.1414Z" fill="url(#paint2_linear_188_695)"/>
<path d="M29.98 17.0251L13.8329 8.0668C12.8823 7.54611 12.0464 7.60951 11.5339 8.1356L25.3115 21.5832L29.98 17.0251Z" fill="url(#paint3_linear_188_695)"/>
<defs>
<linearGradient id="paint0_linear_188_695" x1="24.0953" y1="33.7677" x2="5.98969" y2="15.2234" gradientUnits="userSpaceOnUse">
<stop stop-color="#00A0FF"/>
<stop offset="0.0066" stop-color="#00A1FF"/>
<stop offset="0.2601" stop-color="#00BEFF"/>
<stop offset="0.5122" stop-color="#00D2FF"/>
<stop offset="0.7604" stop-color="#00DFFF"/>
<stop offset="1" stop-color="#00E3FF"/>
</linearGradient>
<linearGradient id="paint1_linear_188_695" x1="37.3973" y1="21.5818" x2="10.6524" y2="21.5818" gradientUnits="userSpaceOnUse">
<stop stop-color="#FFE000"/>
<stop offset="0.4087" stop-color="#FFBD00"/>
<stop offset="0.7754" stop-color="#FFA500"/>
<stop offset="1" stop-color="#FF9C00"/>
</linearGradient>
<linearGradient id="paint2_linear_188_695" x1="27.4414" y1="19.1055" x2="2.88869" y2="-6.04214" gradientUnits="userSpaceOnUse">
<stop stop-color="#FF3A44"/>
<stop offset="1" stop-color="#C31162"/>
</linearGradient>
<linearGradient id="paint3_linear_188_695" x1="8.06574" y1="42.9762" x2="19.0296" y2="31.7467" gradientUnits="userSpaceOnUse">
<stop stop-color="#32A071"/>
<stop offset="0.0685" stop-color="#2DA771"/>
<stop offset="0.4762" stop-color="#15CF74"/>
<stop offset="0.8009" stop-color="#06E775"/>
<stop offset="1" stop-color="#00F076"/>
</linearGradient>
</defs>
</svg>
