<svg width="39" height="37" viewBox="0 0 39 37" fill="none" xmlns="http://www.w3.org/2000/svg">
<path d="M30.2113 36.2535H4.94366C4.29445 36.2535 3.6516 36.1256 3.05181 35.8772C2.45201 35.6287 1.90703 35.2646 1.44797 34.8055C0.988904 34.3465 0.624756 33.8015 0.376314 33.2017C0.127871 32.6019 0 31.959 0 31.3098V13.7324C0 13.2953 0.173616 12.8762 0.482655 12.5671C0.791694 12.2581 1.21084 12.0845 1.64789 12.0845C2.08493 12.0845 2.50408 12.2581 2.81312 12.5671C3.12216 12.8762 3.29578 13.2953 3.29578 13.7324V31.3098C3.29578 31.7469 3.46939 32.166 3.77843 32.4751C4.08747 32.7841 4.50662 32.9577 4.94366 32.9577H30.2113C30.6483 32.9577 31.0675 32.7841 31.3765 32.4751C31.6856 32.166 31.8592 31.7469 31.8592 31.3098V26.9155C31.8592 26.4784 32.0328 26.0593 32.3418 25.7502C32.6509 25.4412 33.07 25.2676 33.5071 25.2676C33.9441 25.2676 34.3632 25.4412 34.6723 25.7502C34.9813 26.0593 35.1549 26.4784 35.1549 26.9155V31.3098C35.1549 31.959 35.0271 32.6019 34.7786 33.2017C34.5302 33.8015 34.166 34.3465 33.707 34.8055C33.2479 35.2646 32.7029 35.6287 32.1031 35.8772C31.5033 36.1256 30.8605 36.2535 30.2113 36.2535Z" fill="url(#paint0_linear_2001_6)"/>
<path d="M31.8591 28.5634H29.662C27.7681 28.5634 25.9518 27.811 24.6126 26.4719C23.2735 25.1327 22.5211 23.3164 22.5211 21.4225C22.5211 19.5287 23.2735 17.7124 24.6126 16.3732C25.9518 15.034 27.7681 14.2817 29.662 14.2817H31.8591C33.753 14.2817 35.5693 15.034 36.9085 16.3732C38.2477 17.7124 39 19.5287 39 21.4225C39 23.3164 38.2477 25.1327 36.9085 26.4719C35.5693 27.811 33.753 28.5634 31.8591 28.5634ZM29.662 17.5775C28.6422 17.5775 27.6642 17.9826 26.9431 18.7036C26.222 19.4247 25.8169 20.4027 25.8169 21.4225C25.8169 22.4423 26.222 23.4203 26.9431 24.1414C27.6642 24.8625 28.6422 25.2676 29.662 25.2676H31.8591C32.8789 25.2676 33.8569 24.8625 34.578 24.1414C35.2991 23.4203 35.7042 22.4423 35.7042 21.4225C35.7042 20.4027 35.2991 19.4247 34.578 18.7036C33.8569 17.9826 32.8789 17.5775 31.8591 17.5775H29.662Z" fill="url(#paint1_linear_2001_6)"/>
<path d="M31.8592 23.0704H29.662C29.2249 23.0704 28.8058 22.8968 28.4967 22.5878C28.1877 22.2787 28.0141 21.8596 28.0141 21.4225C28.0141 20.9855 28.1877 20.5664 28.4967 20.2573C28.8058 19.9483 29.2249 19.7747 29.662 19.7747H31.8592C32.2962 19.7747 32.7154 19.9483 33.0244 20.2573C33.3334 20.5664 33.507 20.9855 33.507 21.4225C33.507 21.8596 33.3334 22.2787 33.0244 22.5878C32.7154 22.8968 32.2962 23.0704 31.8592 23.0704Z" fill="url(#paint2_linear_2001_6)"/>
<path d="M33.5071 17.5775C33.07 17.5775 32.6509 17.4039 32.3418 17.0948C32.0328 16.7858 31.8592 16.3666 31.8592 15.9296V11.5352C31.8592 11.0982 31.6856 10.679 31.3765 10.37C31.0675 10.0609 30.6483 9.88733 30.2113 9.88733H4.94366C3.63252 9.88733 2.37508 9.36648 1.44797 8.43936C0.520849 7.51224 0 6.2548 0 4.94366C0 3.63252 0.520849 2.37508 1.44797 1.44797C2.37508 0.520849 3.63252 0 4.94366 0H24.169C24.6061 0 25.0252 0.173616 25.3343 0.482655C25.6433 0.791694 25.8169 1.21084 25.8169 1.64789V6.59155H30.2113C31.5224 6.59155 32.7799 7.1124 33.707 8.03952C34.6341 8.96663 35.1549 10.2241 35.1549 11.5352V15.9296C35.1549 16.3666 34.9813 16.7858 34.6723 17.0948C34.3632 17.4039 33.9441 17.5775 33.5071 17.5775ZM4.94366 3.29578C4.50662 3.29578 4.08747 3.46939 3.77843 3.77843C3.46939 4.08747 3.29578 4.50662 3.29578 4.94366C3.29578 5.38071 3.46939 5.79986 3.77843 6.1089C4.08747 6.41794 4.50662 6.59155 4.94366 6.59155H22.5211V3.29578H4.94366Z" fill="url(#paint3_linear_2001_6)"/>
<defs>
<linearGradient id="paint0_linear_2001_6" x1="17.5775" y1="12.0845" x2="17.5775" y2="36.2535" gradientUnits="userSpaceOnUse">
<stop stop-color="white"/>
<stop offset="1" stop-color="#B3F080"/>
</linearGradient>
<linearGradient id="paint1_linear_2001_6" x1="30.7606" y1="14.2817" x2="30.7606" y2="28.5634" gradientUnits="userSpaceOnUse">
<stop stop-color="white"/>
<stop offset="1" stop-color="#B3F080"/>
</linearGradient>
<linearGradient id="paint2_linear_2001_6" x1="30.7606" y1="19.7747" x2="30.7606" y2="23.0704" gradientUnits="userSpaceOnUse">
<stop stop-color="white"/>
<stop offset="1" stop-color="#B3F080"/>
</linearGradient>
<linearGradient id="paint3_linear_2001_6" x1="17.5775" y1="0" x2="17.5775" y2="17.5775" gradientUnits="userSpaceOnUse">
<stop stop-color="white"/>
<stop offset="1" stop-color="#B3F080"/>
</linearGradient>
</defs>
</svg>
