<svg width="36" height="42" viewBox="0 0 36 42" fill="none" xmlns="http://www.w3.org/2000/svg">
<path d="M34.7819 6.87486C34.4815 6.57443 34.0729 6.40619 33.6483 6.40619C28.3609 6.40619 23.2695 4.47143 19.3158 0.958368L18.6908 0.405587C18.082 -0.135196 17.1686 -0.135196 16.5638 0.405587L15.9389 0.958368C11.9852 4.47143 6.89371 6.40619 1.60228 6.40619C1.17767 6.40619 0.769083 6.57443 0.468671 6.87486C0.168239 7.17529 0 7.58387 0 8.00847V21.7841C0 28.2015 3.49301 34.1098 9.11696 37.2021L16.8521 41.4562C17.0924 41.5884 17.3568 41.6565 17.6252 41.6565C17.8936 41.6565 18.158 41.5884 18.3983 41.4562L26.1334 37.2021C31.7576 34.1097 35.2504 28.201 35.2504 21.7841V8.00847C35.2504 7.58386 35.0823 7.17527 34.7819 6.87486ZM32.046 21.7842C32.046 27.0315 29.1899 31.8666 24.5913 34.3944L17.6253 38.2239L10.6592 34.3944C6.06062 31.8668 3.20458 27.032 3.20458 21.7842V9.55852C8.50832 9.21803 13.5557 7.18312 17.6253 3.73435C21.6911 7.18332 26.7422 9.21806 32.046 9.55852V21.7842ZM15.9789 23.3264L25.2604 13.3281C25.8613 12.6791 26.8747 12.6431 27.5237 13.2439C28.1726 13.8448 28.2087 14.8582 27.6078 15.5072L17.1931 26.7233C16.8967 27.0438 16.4841 27.228 16.0475 27.236H16.0194C15.5948 27.236 15.1862 27.0678 14.8858 26.7674L9.27751 21.1591C8.65259 20.5341 8.65259 19.5207 9.27751 18.8918C9.90244 18.2669 10.9199 18.2669 11.5448 18.8918L15.9789 23.3264Z" fill="url(#paint0_linear_2001_80)"/>
<defs>
<linearGradient id="paint0_linear_2001_80" x1="17.6252" y1="0" x2="17.6252" y2="41.6565" gradientUnits="userSpaceOnUse">
<stop stop-color="white"/>
<stop offset="1" stop-color="#B3F080"/>
</linearGradient>
</defs>
</svg>
