<svg width="44" height="31" viewBox="0 0 44 31" fill="none" xmlns="http://www.w3.org/2000/svg">
<path d="M42.5333 4.4H37.2739L33.3036 0.429734C33.0293 0.154 32.6568 0 32.2667 0H22C21.6099 0 21.2373 0.154 20.9631 0.429734L14.2369 7.15587C12.5209 8.87187 12.5209 11.6615 14.2369 13.3775L14.4892 13.6297C16.2052 15.3457 18.9948 15.3457 20.7108 13.6297L25.9703 8.37027C26.5437 7.7968 26.5437 6.86987 25.9703 6.2964C25.3968 5.72293 24.4699 5.72293 23.8964 6.2964L18.6369 11.5559C18.0869 12.1029 17.1131 12.1029 16.5631 11.5559L16.3108 11.3036C16.0365 11.0279 15.8855 10.6612 15.8855 10.2667C15.8855 9.87213 16.038 9.504 16.3108 9.22973L22.6072 2.93333H31.6595L35.6297 6.9036C35.904 7.17933 36.2765 7.33333 36.6667 7.33333H41.0667V19.0667H36.6667C35.8556 19.0667 35.2 19.7223 35.2 20.5333C35.2 21.3444 35.8556 22 36.6667 22H42.5333C43.3444 22 44 21.3444 44 20.5333V5.86667C44 5.0556 43.3444 4.4 42.5333 4.4Z" fill="#6EADFF"/>
<path d="M27.4369 12.1631C26.8635 11.5896 25.9365 11.5896 25.3631 12.1631C24.7896 12.7365 24.7896 13.6635 25.3631 14.2369L30.6284 19.5023C31.0611 19.9349 31.2297 20.3999 31.1447 20.9249C30.9892 21.8929 30.0197 22.9519 28.6777 23.6221C26.9353 24.4948 24.7045 24.8996 23.6412 24.7676C23.1792 24.706 22.7187 24.8791 22.3989 25.2179C21.1625 26.5305 19.4055 27.3269 17.6983 27.3519C16.7083 27.3621 15.9735 27.0996 15.7036 26.8312L8.37173 19.4993C8.2368 19.3629 8.074 19.2559 7.8936 19.1811C7.71467 19.1048 7.524 19.0667 7.33333 19.0667H2.93333V7.33333H7.33333C7.72347 7.33333 8.096 7.17933 8.37027 6.9036L12.3405 2.93333H16.1333C16.9444 2.93333 17.6 2.27773 17.6 1.46667C17.6 0.6556 16.9444 0 16.1333 0H11.7333C11.3432 0 10.9707 0.154 10.6964 0.429734L6.72613 4.4H1.46667C0.6556 4.4 0 5.0556 0 5.86667V20.5333C0 21.3444 0.6556 22 1.46667 22H6.72613L13.6297 28.9036C14.5112 29.7851 15.9603 30.2837 17.622 30.2837C17.6616 30.2837 17.7027 30.2837 17.7423 30.2823C20.0361 30.25 22.2948 29.3245 24.0343 27.7229C24.0475 27.7229 24.0607 27.7229 24.0709 27.7229C25.8309 27.7229 28.182 27.148 29.9889 26.2445C32.2124 25.1328 33.7275 23.3185 34.0399 21.3928C34.276 19.9349 33.8008 18.5255 32.7023 17.4269L27.4369 12.1631Z" fill="#6EADFF"/>
</svg>
