<svg width="49" height="38" viewBox="0 0 49 38" fill="none" xmlns="http://www.w3.org/2000/svg">
<path d="M23.9801 16.3053C22.3073 16.3407 20.6662 16.7695 19.1899 17.5571C17.7135 18.3447 16.4434 19.4689 15.4824 20.8386C14.5214 22.2084 13.8964 23.7852 13.6581 25.4415C13.4198 27.0977 13.5749 28.7867 14.1109 30.3719L8.90984 34.5172C8.63778 34.7421 8.44113 35.0448 8.34638 35.3848C8.25163 35.7248 8.26332 36.0857 8.37988 36.4188C8.49645 36.7519 8.71229 37.0414 8.99833 37.2481C9.28438 37.4549 9.62691 37.569 9.9798 37.5751H23.9801C37.7826 37.0829 37.7874 16.7992 23.9801 16.3053ZM23.9801 34.1436H14.8842C16.0763 32.9969 18.6342 31.9909 17.7227 30.1356C17.1922 29.0517 16.9417 27.8522 16.994 26.6465C17.0462 25.4409 17.3996 24.2675 18.0218 23.2335C18.644 22.1996 19.5153 21.3379 20.5561 20.7271C21.5969 20.1163 22.7741 19.7759 23.9802 19.737C33.2304 20.0358 33.2306 33.8454 23.9801 34.1436ZM42.8816 12.2453C42.0256 12.2513 41.185 12.474 40.4383 12.8927C35.437 -4.28001 12.6296 -4.31512 7.57795 12.8928C6.79782 12.4722 5.92217 12.2605 5.03606 12.2782C4.14995 12.296 3.28349 12.5427 2.52085 12.9942C1.75821 13.4458 1.12531 14.0869 0.683625 14.8552C0.241936 15.6236 0.00647163 16.4932 0.000103088 17.3795L0 26.1108C0 27.4725 0.540903 28.7783 1.50371 29.7411C2.46653 30.7039 3.77238 31.2448 5.134 31.2448C6.49562 31.2448 7.80148 30.7039 8.76429 29.7411C9.7271 28.7783 10.268 27.4725 10.268 26.1108V18.0519C10.3579 9.93272 16.4883 3.35469 24.0204 3.35469C31.7237 3.23801 37.9273 10.6003 37.7475 18.2307L37.7476 26.0254C37.7409 27.3841 38.273 28.6901 39.2273 29.6572C40.1817 30.6243 41.4805 31.1736 42.8391 31.1849C44.1978 31.1962 45.5055 30.6685 46.4758 29.7174C47.4461 28.7663 47.9998 27.4693 48.0156 26.1107V17.3794C48.0138 16.0183 47.4723 14.7135 46.5099 13.7511C45.5475 12.7887 44.2427 12.2472 42.8816 12.2453ZM5.13398 27.8132C4.68268 27.8126 4.25004 27.633 3.93091 27.3139C3.61179 26.9948 3.43222 26.5621 3.43158 26.1108V17.3794C3.44043 16.9337 3.62369 16.5093 3.942 16.1972C4.2603 15.8852 4.68828 15.7104 5.13403 15.7104C5.57977 15.7104 6.00774 15.8852 6.32603 16.1973C6.64432 16.5094 6.82754 16.9338 6.83637 17.3795V18.0544C6.83584 18.1137 6.82798 18.1711 6.82798 18.2305V26.0254C6.84061 26.2556 6.80615 26.486 6.7267 26.7024C6.64725 26.9188 6.5245 27.1167 6.36593 27.2841C6.20737 27.4514 6.01633 27.5847 5.8045 27.6756C5.59268 27.7666 5.36452 27.8134 5.13398 27.8132ZM44.584 26.1108C44.5751 26.5565 44.3919 26.9809 44.0736 27.2929C43.7553 27.605 43.3273 27.7798 42.8815 27.7797C42.4358 27.7797 42.0078 27.6049 41.6895 27.2929C41.3713 26.9808 41.188 26.5564 41.1792 26.1107C41.1792 25.5171 41.1792 17.7773 41.1792 17.3793C41.1881 16.9336 41.3713 16.5092 41.6896 16.1972C42.008 15.8852 42.4359 15.7104 42.8817 15.7104C43.3274 15.7104 43.7554 15.8852 44.0737 16.1973C44.392 16.5094 44.5752 16.9338 44.584 17.3795V26.1108Z" fill="url(#paint0_linear_2001_22)"/>
<defs>
<linearGradient id="paint0_linear_2001_22" x1="24.0078" y1="0" x2="24.0078" y2="37.5751" gradientUnits="userSpaceOnUse">
<stop stop-color="white"/>
<stop offset="1" stop-color="#B3F080"/>
</linearGradient>
</defs>
</svg>
