<svg width="44" height="44" viewBox="0 0 44 44" fill="none" xmlns="http://www.w3.org/2000/svg">
<path d="M38.6337 27.843C36.6354 26.8438 34.2146 27.487 32.9719 29.3521L31.1963 32.0165C30.6864 32.7929 29.8204 33.2591 28.8879 33.2591H27.1997C27.333 33.0156 27.4433 32.7492 27.5328 32.4598C28.0428 30.8612 27.7326 29.173 26.7335 27.82L24.3126 24.5999C23.1573 23.0678 21.3381 22.1582 19.4272 22.1582H1.66526C0.755638 22.1582 1.5754e-05 22.9138 1.5754e-05 23.8234C1.5754e-05 24.7331 0.755638 25.4887 1.66526 25.4887H19.4272C20.2931 25.4887 21.1361 25.9113 21.6482 26.5981L24.0691 29.8183C24.425 30.2846 24.5354 30.907 24.3584 31.4607C24.1815 32.0372 23.7589 32.4598 23.1824 32.6596C22.5163 32.8824 21.8065 32.7034 21.2944 32.2163L18.3865 29.3084C17.7433 28.6652 16.6775 28.6652 16.0322 29.3084C15.389 29.9515 15.389 31.0173 16.0322 31.6626L20.4721 36.1026C20.7823 36.4127 21.2048 36.5917 21.6482 36.5917H28.8858C30.9278 36.5917 32.8387 35.5697 33.971 33.8836L35.7466 31.2192C36.0567 30.753 36.6562 30.5968 37.1454 30.8425C37.6554 31.086 37.8781 31.7084 37.6783 32.2184L36.4127 35.3927C35.3032 38.1466 32.6825 39.9222 29.708 39.9222H19.2273C18.2282 39.9222 17.2727 39.6329 16.4526 39.0792L13.1451 36.8811C11.7692 35.9714 10.1705 35.4823 8.52606 35.4823H1.66525C0.755622 35.4823 0 36.2379 0 37.1475C0 38.0571 0.755622 38.8127 1.66525 38.8127H8.52606C9.52521 38.8127 10.4807 39.1021 11.3008 39.6558L14.6083 41.8539C15.9842 42.7635 17.5829 43.2527 19.2273 43.2527H29.708C34.0376 43.2527 37.8781 40.6549 39.4996 36.6146L40.7652 33.4403C41.6082 31.3317 40.6757 28.8671 38.6337 27.845L38.6337 27.843Z" fill="#6EADFF"/>
<path d="M42.5637 6.57146C42.3868 6.03858 41.9642 5.63892 41.4314 5.48279C39.6329 4.99362 37.9906 4.15059 36.5251 3.04114C35.6155 2.33134 34.7933 1.50911 34.0835 0.599489C33.4611 -0.19983 32.0852 -0.19983 31.4628 0.599489C30.753 1.50911 29.9308 2.33134 29.0211 3.04114C27.5786 4.17351 25.9134 4.99574 24.1149 5.48279C23.582 5.63891 23.1387 6.03858 22.9826 6.57146C22.406 8.32623 21.6504 11.8773 22.9826 15.8302C25.137 22.2019 31.0423 24.6664 32.2184 25.089C32.3953 25.1556 32.5952 25.1993 32.795 25.1993C32.9948 25.1993 33.1717 25.1556 33.3716 25.089C34.5268 24.6664 40.4551 22.2248 42.6074 15.8302C43.9396 11.8773 43.184 8.32623 42.6074 6.57146H42.5637ZM39.4101 14.7645C37.9676 19.0275 34.3249 21.0258 32.7721 21.7148C31.2171 21.0258 27.5536 19.0067 26.134 14.7645C25.291 12.2333 25.5345 9.90195 25.9113 8.39284C27.7763 7.77044 29.5082 6.8379 31.0631 5.63892C31.6626 5.17266 32.2392 4.66269 32.7721 4.1069C33.305 4.66269 33.8815 5.17266 34.481 5.63892C36.036 6.8379 37.7678 7.77044 39.6329 8.39284C40.0097 9.90195 40.2553 12.2333 39.4101 14.7645Z" fill="#6EADFF"/>
<path d="M34.327 10.1474L31.5065 12.968L31.1734 12.6349C30.5303 11.9917 29.4645 11.9917 28.8192 12.6349C28.176 13.2781 28.176 14.3438 28.8192 14.9892L30.3283 16.4983C30.6613 16.8313 31.0839 16.9874 31.5044 16.9874C31.9269 16.9874 32.3474 16.8313 32.6804 16.4983L36.677 12.5017C37.3202 11.8585 37.3202 10.7927 36.677 10.1474C36.0338 9.50424 34.9681 9.50424 34.3228 10.1474H34.327Z" fill="#6EADFF"/>
</svg>
