<svg width="38" height="38" viewBox="0 0 38 38" fill="none" xmlns="http://www.w3.org/2000/svg">
<path d="M36.4407 35.289C32.2264 34.2097 30.0661 31.5498 30.0548 31.5269C29.8916 31.3179 29.6368 31.1905 29.3821 31.1677C29.1143 31.1563 28.8482 31.2493 28.662 31.4355C28.6277 31.4698 24.6322 35.2677 18.5843 35.2677C12.5345 35.2677 8.55218 31.4714 8.50662 31.4355C8.32048 31.2493 8.05434 31.1563 7.78652 31.1677C7.51871 31.1791 7.27543 31.3179 7.10074 31.5269C7.07788 31.5498 4.91763 34.2211 0.714876 35.3004C0.20378 35.4277 -0.0982701 35.9502 0.0290961 36.4499C0.156458 36.961 0.690381 37.263 1.17861 37.1357C4.63857 36.2539 6.88062 34.4415 7.91226 33.4324C9.4455 34.6407 13.2648 37.1716 18.5714 37.1716C23.878 37.1716 27.6973 34.6521 29.2305 33.4324C30.2641 34.4431 32.5044 36.2539 35.9642 37.1357C36.4638 37.263 36.9863 36.961 37.1137 36.4499C37.2411 35.9388 36.939 35.4277 36.4279 35.3004L36.4407 35.289Z" fill="#1C1C1C"/>
<path d="M5.58979 27.6833C5.71715 28.0785 6.08943 28.3332 6.48457 28.3332C6.58907 28.3332 6.68214 28.3218 6.78664 28.2875C7.28629 28.1242 7.55243 27.5902 7.37937 27.0922C6.36864 24.0846 5.33508 21.7739 4.75543 20.5676L18.5726 14.9834L32.3898 20.5676C31.8085 21.7759 30.7765 24.0863 29.7658 27.0922C29.6025 27.5919 29.8703 28.1258 30.3586 28.2875C30.8582 28.4508 31.3922 28.183 31.5538 27.6947C32.9825 23.4332 34.5027 20.5431 34.5141 20.5184C34.6415 20.2866 34.6529 20.0073 34.5729 19.7526C34.4798 19.4979 34.2822 19.3004 34.039 19.1959L29.4522 17.3377L27.3736 7.87363C27.1532 6.87435 26.2469 6.14284 25.2248 6.14284H24.3186L23.8189 1.9398C23.6915 0.836011 22.751 0 21.6244 0H15.529C14.4138 0 13.4733 0.836011 13.3345 1.9398L12.8349 6.14284H11.9531C10.9081 6.14284 10.0264 6.85148 9.80432 7.87363L7.7257 17.3243L3.11636 19.1939C2.87306 19.2984 2.67548 19.496 2.58244 19.7507C2.48939 20.0054 2.51222 20.2846 2.64122 20.5165C2.65265 20.5508 4.17446 23.4311 5.60153 27.6928L5.58979 27.6833ZM15.2152 2.162C15.2381 1.99872 15.3654 1.88278 15.5287 1.88278H21.6241C21.7873 1.88278 21.9147 1.99871 21.9376 2.162L22.4143 6.14446H14.7402L15.217 2.162H15.2152ZM11.6393 8.28202C11.6736 8.13179 11.8026 8.03872 11.9528 8.03872H25.2245C25.3747 8.03872 25.5037 8.14323 25.5265 8.28202L27.3259 16.4787L18.9203 13.0759C18.6884 12.9828 18.4435 12.9828 18.2116 13.0759L9.84021 16.4656L11.6396 8.28026L11.6393 8.28202Z" fill="#1C1C1C"/>
</svg>
