<svg width="42" height="45" viewBox="0 0 42 45" fill="none" xmlns="http://www.w3.org/2000/svg">
<path d="M18.4409 35.5247H4.43896C3.62095 35.5247 2.95623 34.8581 2.95623 34.042L2.95439 4.43711C2.95439 3.6191 3.62099 2.95439 4.43896 2.95439H27.8268C28.6448 2.95439 29.3096 3.6191 29.3096 4.43711V17.981C29.3096 18.7971 29.9706 19.4582 30.7868 19.4582C31.6029 19.4582 32.2639 18.7971 32.2639 17.981V4.43711C32.2639 1.9905 30.2734 0 27.8268 0H4.43896C1.99234 0 0 1.9905 0 4.43711V34.042C0 36.4904 1.9905 38.4791 4.43711 38.4791H18.439C19.2552 38.4791 19.9162 37.818 19.9162 37.0019C19.9181 36.1876 19.257 35.5247 18.4409 35.5247Z" fill="#6EADFF"/>
<path d="M9.04922 10.0599H14.3633C15.1795 10.0599 15.8405 9.39883 15.8405 8.58266C15.8405 7.7665 15.1795 7.10547 14.3633 7.10547H9.04922C8.23305 7.10547 7.57202 7.7665 7.57202 8.58266C7.57202 9.39883 8.23489 10.0599 9.04922 10.0599Z" fill="#6EADFF"/>
<path d="M24.7056 15.6872C24.7056 14.871 24.0445 14.21 23.2284 14.21H9.04922C8.23305 14.21 7.57202 14.871 7.57202 15.6872C7.57202 16.5033 8.23305 17.1643 9.04922 17.1643H23.2265C24.0427 17.1643 24.7056 16.5033 24.7056 15.6872Z" fill="#6EADFF"/>
<path d="M9.05491 21.3164C8.23874 21.3164 7.57771 21.9774 7.57771 22.7936C7.57771 23.6098 8.23874 24.2708 9.05491 24.2708H21.2085C22.0247 24.2708 22.6857 23.6098 22.6857 22.7936C22.6857 21.9774 22.0247 21.3164 21.2085 21.3164H9.05491Z" fill="#6EADFF"/>
<path d="M39.6051 26.3574L32.3151 22.6958C31.4842 22.2785 30.4945 22.2785 29.6599 22.6958L22.3717 26.3574C21.3562 26.867 20.7339 27.8845 20.7413 29.0126C20.7672 31.7879 21.5058 41.0831 29.9718 44.1372C30.2967 44.2554 30.6421 44.3163 30.9892 44.3163C31.3326 44.3163 31.6797 44.2572 32.001 44.1428C40.4728 41.0887 41.2111 31.7915 41.2371 29.0144C41.2427 27.8862 40.6189 26.867 39.6051 26.3574ZM30.9987 41.3619C30.9931 41.3656 30.9876 41.3619 30.9802 41.3619H30.9765C24.4825 39.0187 23.7196 31.9282 23.6978 28.9998L30.9897 25.3382L38.2816 28.9906C38.2539 31.9283 37.4932 39.0189 30.9992 41.3621L30.9987 41.3619Z" fill="#6EADFF"/>
<path d="M28.9897 32.5307C28.4117 31.9527 27.4793 31.9527 26.9013 32.5307C26.3233 33.1087 26.3233 34.0429 26.9013 34.6191L28.7478 36.4655C29.0358 36.7536 29.4144 36.8976 29.7929 36.8976C30.1714 36.8976 30.5499 36.7536 30.8379 36.4655L35.0756 32.226C35.6536 31.648 35.6536 30.7137 35.0756 30.1376C34.4977 29.5596 33.5652 29.5596 32.9872 30.1376L29.7928 33.332L28.9897 32.5307Z" fill="#6EADFF"/>
</svg>
