<svg width="44" height="29" viewBox="0 0 44 29" fill="none" xmlns="http://www.w3.org/2000/svg">
<path d="M43.4647 20.6435C43.4445 19.8031 43.461 18.9609 43.4629 18.1186C43.4665 14.4855 41.272 11.3643 37.9012 10.6452C35.9049 10.2195 34.6534 9.02681 33.5617 7.44512C32.1268 5.36801 30.4479 3.51111 28.233 2.21746C26.8238 1.39543 25.3834 0.624781 23.743 0.35506C21.1375 -0.0743044 18.5079 -0.0100828 15.8844 0.0266128C13.0293 0.0633103 10.2236 0.364234 7.69694 1.88901C5.23817 3.37346 3.30784 5.41568 1.74823 7.77524C0.542711 9.59546 -0.119707 11.6432 0.0179245 13.8926C0.0839784 14.9825 0.0289337 16.0798 0.0289337 17.1734C0.0289337 18.6872 0.0270989 20.2028 0.0289337 21.7166C0.0326037 23.2396 1.09316 24.368 2.629 24.3809C3.25469 24.3864 3.53178 24.5791 3.76665 25.1717C4.54279 27.1167 6.64194 28.5534 8.68805 28.4433C10.956 28.3222 12.756 27.324 13.6531 25.1167C13.8752 24.568 14.1265 24.3809 14.7302 24.3864C18.545 24.4212 22.3596 24.4212 26.1725 24.3919C26.833 24.3864 27.2018 24.5295 27.4826 25.1919C28.378 27.3039 30.1304 28.3736 32.3251 28.4231C34.2389 28.4653 36.0903 27.7424 36.927 25.9167C37.5619 24.5295 38.3601 24.302 39.6995 24.3882C42.0519 24.5387 43.5198 22.8435 43.4647 20.6435ZM8.69503 26.4235C6.97205 26.5465 5.15921 24.7373 5.26743 23.0198C5.38303 21.183 6.60876 19.7188 8.60146 19.7023C10.5776 19.6858 11.985 21.0583 11.9924 22.9996C12.0713 25.1006 10.5005 26.2951 8.69503 26.4235ZM32.3301 26.3997C30.286 26.374 29.0585 24.8217 29.0108 23.1189C28.9558 21.2069 30.5118 19.6894 32.3448 19.6931C34.3027 19.6986 35.7192 21.1041 35.7174 23.0418C35.7376 25.3538 33.9081 26.418 32.3301 26.3997ZM41.4369 21.1373C41.4479 21.807 41.0442 22.1226 40.4332 22.2327C40.3249 22.2529 40.2075 22.2272 40.0974 22.24C38.7047 22.3831 37.6845 22.3171 37.1138 20.5501C36.4368 18.4528 34.211 17.5078 31.7669 17.6931C29.7302 17.8491 27.9007 19.3207 27.2916 21.3757C27.0971 22.0271 26.8237 22.2693 26.1007 22.2602C22.3171 22.2143 18.5319 22.2271 14.7463 22.2528C14.2179 22.2565 13.9683 22.1317 13.8215 21.6014C13.1628 19.2326 11.2508 17.7261 8.92593 17.6876C6.2415 17.6418 4.35336 18.9519 3.54608 21.3996C3.39929 21.8436 3.35892 22.4253 2.60295 22.24C1.98276 22.0877 1.85983 21.695 1.87082 21.1262C1.89651 19.8363 1.87816 18.5482 1.87816 16.9463C2.01394 15.5408 1.62861 13.7977 2.13688 12.0987C2.97728 9.29128 4.76447 7.15709 6.85065 5.18092C9.10758 3.04326 11.8308 2.36069 14.8084 2.15152C16.4873 2.03225 18.1608 2.06528 19.836 2.05243C23.37 2.02858 26.5607 2.9717 29.1827 5.45983C30.4415 6.6562 31.5387 7.99931 32.5168 9.42504C33.7021 11.1517 35.3517 12.1278 37.3151 12.6343C39.4032 13.17 40.9041 14.7701 41.2693 16.8857C41.517 18.2986 41.4143 19.7188 41.4363 21.1372L41.4369 21.1373ZM30.9411 11.7938C30.176 10.3442 29.3704 8.9185 28.4237 7.57351C27.5557 6.34046 26.4218 5.50006 24.9869 5.06523C22.5245 4.31657 19.9852 4.36246 17.4547 4.38449C15.4804 4.401 13.4547 4.33311 11.5868 5.02854C8.31149 6.24877 6.726 8.97909 5.7701 12.1389C5.51321 12.9921 6.02331 13.4912 6.94077 13.4912C10.7574 13.493 14.5721 13.4912 18.3868 13.4912C22.2309 13.4894 26.0749 13.493 29.9173 13.4894C31.055 13.4875 31.4751 12.8048 30.9411 11.7938ZM16.596 11.469C13.8344 11.4598 11.0709 11.4635 8.29106 11.4635C8.88922 9.44877 11.192 6.55338 14.2196 6.57733C14.9994 6.58284 15.7811 6.54247 16.5591 6.47825C16.9536 6.44522 17.038 6.59018 17.0361 6.94248C17.0233 8.31499 17.0215 9.68563 17.038 11.0563C17.0416 11.4013 16.9079 11.4708 16.596 11.469ZM19.7318 11.4708C19.3208 11.4727 19.1428 11.4011 19.1556 10.9296C19.1887 9.61211 19.1648 8.29281 19.1666 6.97535C19.1666 6.74232 19.0565 6.43591 19.4932 6.46893C21.2602 6.59921 23.0603 6.43957 24.7683 7.10749C26.1959 7.66713 26.95 8.86166 27.6876 10.0837C27.9445 10.5057 28.1959 10.9314 28.5152 11.4635C25.506 11.4635 22.6197 11.458 19.7318 11.4708Z" fill="#1C1C1C"/>
</svg>
