<svg width="33" height="41" viewBox="0 0 33 41" fill="none" xmlns="http://www.w3.org/2000/svg">
<path fill-rule="evenodd" clip-rule="evenodd" d="M14.2695 0.000495902C13.9988 0.00391914 13.7241 0.0277211 13.4461 0.0719956C12.3344 0.249852 11.1904 0.836324 10.3071 1.91019C9.24391 3.20289 8.86468 4.78609 9.034 6.31311C9.20333 7.84014 9.85256 9.32761 10.7684 10.7483C12.6001 13.5897 15.5178 16.2015 18.3957 18.0365C18.5847 18.1563 18.8039 18.2198 19.0276 18.2198C19.2514 18.2198 19.4705 18.1563 19.6596 18.0365C22.5375 16.2015 25.4482 13.5897 27.2799 10.7483C28.1958 9.32761 28.8542 7.84014 29.0236 6.31311C29.1929 4.78609 28.8137 3.20289 27.7504 1.91019C26.8672 0.836333 25.7139 0.249848 24.6022 0.0719956C23.4904 -0.105861 22.4315 0.0748297 21.5162 0.357995C20.0905 0.79891 19.4594 1.30649 19.023 1.60576C18.586 1.30615 17.9638 0.798637 16.539 0.357995C15.8526 0.145727 15.0817 -0.00994788 14.2695 0.000495902ZM14.2995 2.36917C14.7929 2.3647 15.3213 2.45763 15.8333 2.61594C17.1985 3.03815 18.3173 3.85447 18.3173 3.85447C18.5214 4.00699 18.7694 4.08941 19.0242 4.08941C19.279 4.08941 19.527 4.00699 19.7311 3.85447C19.7311 3.85447 20.8498 3.03815 22.2151 2.61594C22.8977 2.40483 23.6185 2.30695 24.2378 2.40603C24.8571 2.50512 25.3914 2.75639 25.9284 3.40932C26.5915 4.21561 26.7906 5.03451 26.678 6.05015C26.5654 7.06579 26.0825 8.25606 25.301 9.46823C23.8806 11.6716 21.4117 13.8026 19.023 15.4487C16.6361 13.8029 14.1759 11.67 12.7565 9.46826C11.9751 8.2561 11.4922 7.06582 11.3796 6.05018C11.2671 5.03455 11.4661 4.21564 12.1292 3.40935C12.6662 2.75644 13.2005 2.50514 13.8198 2.40607C13.9746 2.38108 14.135 2.37095 14.2995 2.36917ZM29.275 17.1209C28.4355 17.1215 27.59 17.4575 26.957 18.0988C26.957 18.1012 26.957 18.1036 26.957 18.1059L23.0523 22.082C22.5031 21.0303 22.0228 19.7802 20.7667 19.7802H12.6781C12.3651 19.7778 12.064 19.8998 11.8409 20.1193L7.83467 24.1162L7.60403 23.8856C7.38275 23.6656 7.08342 23.5421 6.77142 23.5421C6.45941 23.5421 6.16008 23.6656 5.93881 23.8856L0.343483 29.474C0.123487 29.6952 0 29.9946 0 30.3066C0 30.6186 0.123487 30.9179 0.343483 31.1392C0.453218 31.2495 0.583674 31.3371 0.727354 31.3968C0.871033 31.4565 1.0251 31.4873 1.18071 31.4873C1.33631 31.4873 1.49038 31.4565 1.63406 31.3968C1.77774 31.3371 1.90819 31.2495 2.01793 31.1392L6.77603 26.388L6.96746 26.5794C6.97864 26.5943 6.99018 26.6089 7.00205 26.6232L13.5499 33.1618L13.7759 33.3878L9.02475 38.139C8.80476 38.3603 8.68127 38.6596 8.68127 38.9716C8.68127 39.2836 8.80476 39.583 9.02475 39.8042C9.24601 40.0242 9.54535 40.1477 9.85737 40.1477C10.1694 40.1477 10.4687 40.0242 10.69 39.8042L16.2876 34.225C16.3979 34.1153 16.4854 33.9848 16.5452 33.8412C16.6049 33.6975 16.6357 33.5434 16.6357 33.3878C16.6357 33.2322 16.6049 33.0782 16.5452 32.9345C16.4854 32.7908 16.3979 32.6603 16.2876 32.5506L16.057 32.3199L17.7522 30.6247H23.3729C23.53 30.6259 23.6859 30.5957 23.8312 30.5359C23.9765 30.4761 24.1085 30.3879 24.2193 30.2765L31.6021 22.7622C32.8689 21.4789 32.8689 19.3821 31.6021 18.0987C30.9664 17.4548 30.112 17.1203 29.275 17.1209ZM29.275 19.485C29.5086 19.4848 29.7361 19.5677 29.9208 19.7548C30.2948 20.1337 30.2948 20.7275 29.9208 21.1063C29.9176 21.1063 29.9144 21.1063 29.9113 21.1063L22.8768 28.2631H17.263C16.9519 28.2656 16.6544 28.3908 16.435 28.6114L14.3892 30.6571L9.50661 25.7837L13.1669 22.1419H20.7664C21.2838 22.1419 21.6821 22.5358 21.6821 23.0852C21.6821 23.3472 21.5884 23.5596 21.4307 23.7287C21.4283 23.7314 21.4236 23.735 21.4212 23.7381C21.4212 23.7442 21.4212 23.7503 21.4212 23.7564C21.412 23.7587 21.4028 23.761 21.3936 23.7635C21.2265 23.9271 21.0185 24.0265 20.7663 24.0265H15.9736C15.8185 24.0258 15.6648 24.0558 15.5213 24.1146C15.3778 24.1734 15.2473 24.2598 15.1372 24.3691C15.0271 24.4783 14.9396 24.6081 14.8797 24.7512C14.8198 24.8942 14.7887 25.0476 14.7881 25.2027C14.7875 25.3586 14.8177 25.513 14.8771 25.6571C14.9364 25.8012 15.0237 25.9321 15.1339 26.0423C15.2441 26.1525 15.3751 26.2398 15.5192 26.2992C15.6633 26.3586 15.8177 26.3888 15.9736 26.3882H20.7663H21.6381C21.7943 26.387 21.9488 26.3547 22.0925 26.2934C22.2362 26.232 22.3664 26.1427 22.4753 26.0307L23.0519 25.4564L23.0681 25.4381C23.0746 25.4206 23.0808 25.4029 23.0865 25.3851C23.095 25.3852 23.1034 25.3852 23.1119 25.3851L23.1303 25.369L28.638 19.7645C28.8254 19.5746 29.0438 19.4851 29.275 19.485Z" fill="#1C1C1C"/>
</svg>
