<svg width="37" height="39" viewBox="0 0 37 39" fill="none" xmlns="http://www.w3.org/2000/svg">
<path d="M0.0448726 27.9738C-0.0758654 28.3894 0.0517716 28.8396 0.370861 29.1328C5.42972 33.7638 12.4394 33.0154 15.6733 32.3531L15.0437 36.7739V36.7722C14.9954 37.1016 15.092 37.4362 15.3111 37.688C15.5284 37.9399 15.8457 38.083 16.1786 38.083H19.9508C20.3579 38.0865 20.7339 37.8743 20.9443 37.5259L25.208 30.7008L34.9412 28.2119C35.2482 28.1309 35.5086 27.9256 35.6621 27.6462C35.8156 27.3772 35.8536 27.0564 35.7691 26.7597C35.2999 25.1332 34.2461 23.7378 32.8093 22.8409C31.3743 21.944 29.6581 21.6094 27.9902 21.9026L13.4291 24.4364L5.63309 18.3045C5.37091 18.1027 5.03801 18.0217 4.71205 18.0803L1.41419 18.7375C1.0813 18.803 0.794999 19.0152 0.632861 19.3118C0.472454 19.612 0.448306 19.9656 0.569044 20.2829L3.08037 26.7216L0.922638 27.1822C0.505235 27.2632 0.167359 27.5667 0.0448726 27.9738ZM4.64496 20.44L12.4083 26.5612C12.6671 26.7648 13.0017 26.8493 13.3276 26.7906L28.3956 24.1689C30.2463 23.8447 32.1057 24.6915 33.0783 26.2991L24.1642 28.5896C23.8779 28.6638 23.6313 28.8414 23.4743 29.0915L19.3158 35.7647H17.503L18.1843 30.9716C18.2412 30.5784 18.0894 30.1852 17.7858 29.9299C17.4823 29.6745 17.0666 29.5935 16.6889 29.716C16.6112 29.7384 9.44961 32.0151 3.9302 28.9018L4.84952 28.7087C5.1893 28.6483 5.48425 28.4396 5.65327 28.1377C5.8223 27.8376 5.84645 27.4754 5.71882 27.1546L3.21266 20.7159L4.64496 20.44ZM26.0033 15.3348C27.2538 16.7974 29.1028 17.6133 31.0259 17.5511C32.0401 17.5442 33.0457 17.3769 34.0064 17.0544C34.0426 17.5149 34.0702 17.9737 34.0702 18.4343H34.072C34.072 19.069 34.586 19.5847 35.2207 19.5847C35.8572 19.5847 36.3712 19.069 36.3712 18.4343C36.3625 14.293 34.9654 10.2757 32.4024 7.02454C29.8393 3.77154 26.2604 1.47247 22.2365 0.496197H22.1347H22.1365C18.1125 -0.455877 13.8865 -0.0298682 10.1333 1.7053C6.38012 3.44047 3.3184 6.38663 1.43871 10.0674C1.07132 10.7815 0.750506 11.5197 0.481424 12.2752C0.270998 12.8771 0.590085 13.536 1.19206 13.7447C1.79403 13.9551 2.45119 13.636 2.66159 13.0341C2.84787 12.5166 3.06174 12.0078 3.30148 11.5128C5.39886 11.0454 7.59284 11.3196 9.51059 12.2889C10.5231 12.8081 11.282 13.122 11.9305 13.122H11.9288C12.1841 13.1203 12.4359 13.0634 12.6653 12.9513C13.457 12.5925 13.645 11.825 13.8106 11.1436C14.0365 9.99318 14.5989 8.93588 15.425 8.10453C17.6328 5.84157 17.8311 3.72177 17.431 2.28134H17.8915H17.8898C18.5401 2.28134 19.1903 2.32101 19.8354 2.40035C19.4593 3.2714 19.2714 4.21142 19.2834 5.16005C19.3472 7.65756 21.0082 9.38756 23.7179 9.78752C24.2405 9.83926 24.7511 9.96345 25.2409 10.1549C25.2133 10.2739 25.1633 10.4309 25.1219 10.5602C24.8132 11.5572 24.275 13.282 26.0033 15.3343L26.0033 15.3348ZM13.7745 6.49844C12.6586 7.6213 11.8927 9.04253 11.5702 10.5914C11.5685 10.6242 11.5685 10.6569 11.5702 10.688C11.358 10.6052 11.0458 10.4672 10.5767 10.2275V10.2292C8.79842 9.31676 6.81144 8.88726 4.81399 8.98215C7.27873 5.58944 10.9613 3.28171 15.0889 2.54343C15.3235 3.01258 15.7753 4.44765 13.7745 6.49844ZM24.068 7.48332C22.7209 7.28496 21.943 6.7106 21.686 5.7361L21.6843 5.73437C21.4825 4.74088 21.6653 3.70774 22.1948 2.84185C24.9924 3.61973 27.5296 5.13413 29.5427 7.22461C31.5555 9.31682 32.9699 11.9108 33.6391 14.7363C32.48 15.1727 29.5685 15.9833 27.7611 13.8446C26.8418 12.7631 27.0574 12.0784 27.3282 11.2177C27.5404 10.5554 27.7888 9.73263 27.2868 8.91854C26.7866 8.1044 25.879 7.74896 24.068 7.48332Z" fill="#1C1C1C"/>
</svg>
