<svg width="45" height="36" viewBox="0 0 45 36" fill="none" xmlns="http://www.w3.org/2000/svg">
<path d="M35.5981 18.3392C35.263 18.3392 34.9329 18.3642 34.6079 18.4042L33.9377 15.7936C36.4033 15.4335 38.9839 15.8686 41.1443 17.1139C41.6795 17.424 42.3646 17.2389 42.6747 16.7038C42.9848 16.1687 42.7997 15.4835 42.2646 15.1734C40.5042 14.1582 38.5087 13.6081 36.4833 13.4781C36.4833 13.4681 36.4833 13.4631 36.4833 13.4531L35.6581 9.32212C35.273 7.40168 33.5726 6.00636 31.6122 6.00636H31.1921L30.1869 1.98545C29.8968 0.815185 28.8516 0 27.6463 0H25.8159C25.1957 0 24.6956 0.500113 24.6956 1.12025C24.6956 1.7404 25.1957 2.24051 25.8159 2.24051H27.6463C27.8213 2.24051 27.9764 2.36054 28.0164 2.53057L28.8866 6.01137H27.8063C26.7211 6.01137 25.6558 6.45147 24.8907 7.21664L23.0952 9.01205H18.6742C17.9741 9.01205 17.2689 8.96704 16.5788 8.88202L5.53626 7.51171H2.27052C1.65037 7.51171 1.15026 8.01182 1.15026 8.63196C1.15026 9.2521 1.65037 9.75221 2.27052 9.75221L4.416 9.74721V11.6376C4.416 12.0827 4.68106 12.4878 5.09616 12.6679L5.22619 12.7229L1.00023 15.5585C0.48511 15.9036 0.350079 16.5988 0.695158 17.1139C0.910207 17.434 1.26529 17.609 1.62537 17.609C1.84042 17.609 2.05547 17.549 2.25051 17.419L7.68175 13.7781L13.323 16.1937C14.5233 16.7088 15.4535 17.659 15.9386 18.8743L16.4737 20.2146L14.7984 21.2998C13.253 19.4994 10.9675 18.3492 8.41191 18.3492C3.77586 18.3392 0 22.11 0 26.7461C0 31.3821 3.77586 35.158 8.41191 35.158C13.048 35.158 16.8238 31.3821 16.8238 26.7461C16.8238 25.4658 16.5288 24.2555 16.0136 23.1653L17.3239 22.3201L17.644 23.1153C18.0441 24.1205 18.9993 24.7656 20.0796 24.7656H23.9904C25.1207 24.7656 26.1209 24.0455 26.476 22.9752L27.1612 20.9248C27.3812 20.2596 27.3312 19.5494 27.0161 18.9193C26.8211 18.5292 26.536 18.1991 26.1859 17.9541L29.7268 17.2389C29.8468 17.2139 29.9568 17.1739 30.0618 17.1089C30.607 16.7938 31.1871 16.5488 31.7722 16.3387L32.4474 18.9593C29.3717 20.2096 27.1962 23.2303 27.1962 26.7511C27.1962 31.3871 30.967 35.163 35.6081 35.163C40.2441 35.163 44.02 31.3871 44.02 26.7511C44.02 22.115 40.2391 18.3392 35.5981 18.3392ZM8.41191 32.9225C5.00614 32.9225 2.24051 30.1518 2.24051 26.7511C2.24051 23.3503 5.01114 20.5797 8.41191 20.5797C10.1773 20.5797 11.7577 21.3348 12.8879 22.5251L7.9368 25.7208C7.41669 26.0559 7.26665 26.7511 7.60173 27.2662C7.81678 27.5963 8.17686 27.7763 8.54194 27.7763C8.75199 27.7763 8.96204 27.7163 9.14708 27.5963L14.1132 24.3955C14.4133 25.1207 14.5833 25.9159 14.5833 26.7511C14.5833 30.1518 11.8127 32.9225 8.41191 32.9225ZM29.1016 15.0784L21.84 16.5438C21.3448 16.6438 20.9748 17.0639 20.9448 17.574C20.9148 18.0791 21.2248 18.5442 21.7099 18.7043L24.7906 19.7295C24.8857 19.7595 24.9707 19.8345 25.0107 19.9195C25.0557 20.0095 25.0657 20.1196 25.0307 20.2146L24.3455 22.2701C24.2955 22.4251 24.1455 22.5301 23.9804 22.5301H20.0696C19.9145 22.5301 19.7745 22.4351 19.7145 22.2901L18.0091 18.0341C17.3039 16.2687 15.9486 14.8784 14.1982 14.1282L6.65151 10.8925V9.89225L16.2987 11.0975C17.0839 11.1975 17.8841 11.2476 18.6742 11.2476H23.5604C23.8554 11.2476 24.1405 11.1275 24.3505 10.9175L26.476 8.792C26.8261 8.44192 27.3112 8.24187 27.8063 8.24187H31.6072C32.5024 8.24187 33.2826 8.87702 33.4576 9.75722L34.2078 13.5031C32.4224 13.6881 30.672 14.2032 29.1016 15.0784ZM35.5981 32.9225C32.1923 32.9225 29.4267 30.1518 29.4267 26.7511C29.4267 24.2755 30.902 22.15 33.0075 21.1648L34.4928 26.9361C34.6229 27.4412 35.078 27.7763 35.5781 27.7763C35.6681 27.7763 35.7631 27.7663 35.8581 27.7413C36.4583 27.5863 36.8184 26.9761 36.6633 26.381L35.183 20.6247C35.323 20.6147 35.4581 20.5797 35.6031 20.5797C39.0089 20.5797 41.7745 23.3503 41.7745 26.7511C41.7745 30.1518 39.0039 32.9225 35.5981 32.9225Z" fill="#1C1C1C"/>
<path d="M24.6156 26.0459H19.5644C18.9443 26.0459 18.4442 26.546 18.4442 27.1662C18.4442 27.7863 18.9443 28.2864 19.5644 28.2864H24.6156C25.2357 28.2864 25.7358 27.7863 25.7358 27.1662C25.7358 26.546 25.2307 26.0459 24.6156 26.0459Z" fill="#1C1C1C"/>
</svg>
