<svg width="23" height="22" viewBox="0 0 23 22" fill="none" xmlns="http://www.w3.org/2000/svg">
<path fill-rule="evenodd" clip-rule="evenodd" d="M4.9978 0.000579651C6.1965 0.0166768 7.05073 0.914897 8.13138 2.05136C8.39859 2.33145 8.68727 2.63729 9.01028 2.95923C10.576 4.52602 10.1306 5.80413 9.77114 6.83006C9.38052 7.94935 9.04248 8.91518 11.0664 10.9391C13.0904 12.9631 14.0551 12.625 15.1733 12.2312C16.2003 11.8728 17.4752 11.4242 19.0442 12.991C19.3629 13.3097 19.6634 13.5951 19.9424 13.8602C21.0831 14.9462 21.9846 15.8037 21.9998 17.0056C22.0114 18.0294 21.389 19.0746 19.8522 20.6114L19.1719 20.1499L19.7481 20.7112C19.408 21.0599 18.5033 21.9893 16.7315 22H16.6994C14.0251 22 10.5384 19.8709 6.33601 15.6695C2.11642 11.451 -0.0159172 7.95364 8.94491e-05 5.274C0.00983819 3.50332 0.938106 2.59651 1.28688 2.25633L1.31665 2.22381L1.38883 2.15116C2.92879 0.611198 3.9869 -0.0219563 4.9978 0.000579651ZM4.97742 1.61029H4.96883C4.48692 1.61029 3.75507 2.09321 2.73436 3.08468L2.5294 3.28596L2.53172 3.28547C2.53172 3.28547 2.51421 3.30556 2.48436 3.336L2.4126 3.40781C2.1529 3.66 1.61526 4.18476 1.60984 5.28259C1.60131 6.81825 2.61114 9.66959 7.47354 14.5309C12.3123 19.3687 15.1594 20.3903 16.6994 20.3903H16.7219C17.8197 20.3838 18.3434 19.8462 18.5956 19.5876C18.6718 19.5092 18.734 19.4502 18.778 19.4148C19.848 18.3384 20.3953 17.5389 20.3899 17.0249C20.3834 16.5012 19.7321 15.8831 18.8317 15.0256C18.5452 14.7541 18.2339 14.4569 17.9056 14.1285C17.0535 13.2796 16.6339 13.4245 15.7056 13.7508C14.4232 14.2004 12.6665 14.8164 9.92889 12.0767C7.19023 9.33907 7.80407 7.58233 8.25157 6.29885C8.57566 5.37166 8.72376 4.94991 7.87275 4.09784C7.54008 3.76516 7.24067 3.44966 6.96487 3.15991C6.1128 2.26491 5.49789 1.61781 4.97742 1.61029ZM14.2151 3.81828C16.4483 4.25183 18.1729 5.9753 18.6075 8.20958C18.6923 8.64743 18.4079 9.06917 17.9722 9.15395C17.9196 9.16361 17.8681 9.16897 17.8166 9.16897C17.4389 9.16897 17.103 8.90283 17.0278 8.51865C16.7188 6.9304 15.4943 5.70594 13.9082 5.39795C13.4714 5.31317 13.1871 4.89143 13.2718 4.45466C13.3566 4.01789 13.7859 3.73243 14.2151 3.81828ZM14.1509 0.00669656C18.5271 0.49283 21.9258 3.88718 22.4162 8.26238C22.4656 8.70452 22.1479 9.10265 21.7068 9.15202C21.6768 9.15524 21.6457 9.15738 21.6156 9.15738C21.2111 9.15738 20.8634 8.85368 20.8172 8.44267C20.4105 4.81974 17.5967 2.00811 13.9727 1.60568C13.5316 1.55631 13.2129 1.15925 13.2623 0.717117C13.3106 0.276055 13.7044 -0.0491068 14.1509 0.00669656Z" fill="#4EAB00"/>
</svg>
