<svg width="398" height="372" viewBox="0 0 398 372" fill="none" xmlns="http://www.w3.org/2000/svg">
<path d="M124.194 91.073L39.1462 69.0223L0.962857 192.912L93.2498 225.987L39.6762 300.738L138.565 371.25L201.728 283.307L269.838 371.388L368.922 296.685L307.409 211.545L397.647 180.104L364.763 68.5915L270.826 91.2279L269.497 0.284103L126.49 0.133048L124.194 91.073Z" fill="url(#paint0_linear_2001_28)"/>
<mask id="mask0_2001_28" style="mask-type:alpha" maskUnits="userSpaceOnUse" x="0" y="0" width="398" height="372">
<path d="M124.222 91.0732L39.1838 68.9812L0.187574 193.619L93.2817 225.987L38.9398 300.004L138.592 371.25L201.749 283.308L269.852 371.388L368.925 296.686L307.419 211.545L397.647 180.104L365.5 68.5925L270.882 90.4947L269.51 0.284265L126.518 0.133225L124.222 91.0732Z" fill="url(#paint1_linear_2001_28)"/>
</mask>
<g mask="url(#mask0_2001_28)">
</g>
<defs>
<linearGradient id="paint0_linear_2001_28" x1="199.502" y1="0.210169" x2="199.11" y2="371.313" gradientUnits="userSpaceOnUse">
<stop stop-color="#1A6AD2"/>
<stop offset="1" stop-color="#9BC7FF"/>
</linearGradient>
<linearGradient id="paint1_linear_2001_28" x1="199.114" y1="0.209906" x2="198.722" y2="371.313" gradientUnits="userSpaceOnUse">
<stop stop-color="#1A6AD2"/>
<stop offset="1" stop-color="#9BC7FF"/>
</linearGradient>
</defs>
</svg>
