<svg width="26" height="26" viewBox="0 0 26 26" fill="none" xmlns="http://www.w3.org/2000/svg">
<path d="M17.3334 8.66699C19.0573 8.66699 20.7106 9.35181 21.9296 10.5708C23.1486 11.7898 23.8334 13.4431 23.8334 15.167V22.7503H19.5V15.167C19.5 14.5924 19.2718 14.0413 18.8654 13.6349C18.4591 13.2286 17.908 13.0003 17.3334 13.0003C16.7587 13.0003 16.2076 13.2286 15.8013 13.6349C15.395 14.0413 15.1667 14.5924 15.1667 15.167V22.7503H10.8334V15.167C10.8334 13.4431 11.5182 11.7898 12.7372 10.5708C13.9562 9.35181 15.6095 8.66699 17.3334 8.66699Z" stroke="white" stroke-width="2" stroke-linecap="round" stroke-linejoin="round"/>
<path d="M6.49996 9.75H2.16663V22.75H6.49996V9.75Z" stroke="white" stroke-width="2" stroke-linecap="round" stroke-linejoin="round"/>
<path d="M4.33329 6.50033C5.52991 6.50033 6.49996 5.53028 6.49996 4.33366C6.49996 3.13704 5.52991 2.16699 4.33329 2.16699C3.13668 2.16699 2.16663 3.13704 2.16663 4.33366C2.16663 5.53028 3.13668 6.50033 4.33329 6.50033Z" stroke="white" stroke-width="2" stroke-linecap="round" stroke-linejoin="round"/>
</svg>
