<svg width="100" height="20" viewBox="0 0 100 20" fill="none" xmlns="http://www.w3.org/2000/svg">
<path d="M9.33825 0.257455H0V19.3908H2.68433V12.9942H9.33825C13.6502 12.9942 15.7634 10.8806 15.7634 6.62581C15.7634 2.37051 13.6501 0.257455 9.33825 0.257455ZM2.68433 10.6521V2.59893H9.33825C11.7369 2.59893 12.9362 3.94102 12.9362 6.62566C12.9362 9.30999 11.7369 10.6521 9.33825 10.6521H2.68433ZM27.4432 19.6475C21.3604 19.6475 18.3335 16.392 18.3335 9.82397C18.3335 3.25561 21.3604 0 27.4432 0C33.5547 0 36.5816 3.25545 36.5816 9.82397C36.5816 16.3919 33.5547 19.6475 27.4432 19.6475ZM21.0753 9.82397C21.0753 14.7358 23.2166 17.1916 27.4432 17.1916C31.6985 17.1916 33.8401 14.7358 33.8401 9.82397C33.8401 4.91214 31.6983 2.45622 27.4432 2.45622C23.2166 2.45622 21.0753 4.91214 21.0753 9.82397ZM39.8086 0.2573V15.0214C39.8086 17.5344 41.6361 19.3906 44.1206 19.3906H53.5158V17.049H44.8061C43.4641 17.049 42.4929 15.9922 42.4929 14.5644V0.2573H39.8086ZM78.8459 3.56989V1.02811C77.3324 0.371431 75.0481 0 72.7918 0C66.1094 0 62.9109 3.17005 62.9109 9.76682C62.9109 16.3919 66.1092 19.6475 72.5063 19.6475C75.1051 19.6475 77.1038 19.1049 78.8459 18.6197V16.0209C76.9897 16.5634 75.0481 17.1916 72.6488 17.1916C67.9372 17.1916 65.6527 14.7929 65.6527 9.76682C65.6527 4.76944 67.9372 2.45622 72.9061 2.45622C75.0481 2.45622 77.2753 2.88449 78.8459 3.56989ZM80.7304 0.2573L88.641 12.9939V19.3905H91.2969V12.9939L99.207 0.2573H96.0089L89.9832 10.281L83.9293 0.2573H80.7306H80.7304Z" fill="white"/>
<path fill-rule="evenodd" clip-rule="evenodd" d="M58.3422 6.58968H57.0001V0.257034H59.6845V5.2479C59.6845 5.9861 59.0804 6.58952 58.3424 6.58952L58.3422 6.58968Z" fill="#84BD54"/>
<path fill-rule="evenodd" clip-rule="evenodd" d="M57.0001 19.6476H59.6845V8.32037C59.6845 7.58202 59.0807 6.97829 58.3424 6.97829H57.0003V19.6476H57.0001Z" fill="white"/>
</svg>
