<svg width="441" height="219" viewBox="0 0 441 219" fill="none" xmlns="http://www.w3.org/2000/svg">
<g filter="url(#filter0_f_295_1566)">
<rect x="41" y="41" width="359" height="137" rx="68.5" fill="#00204A"/>
</g>
<rect x="55.5" y="58.5" width="330" height="102" rx="51" stroke="#3074D1"/>
<path d="M108.937 92.8218H97.2292V116.81H100.595V108.791H108.937C114.343 108.791 116.993 106.141 116.993 100.806C116.993 95.4711 114.343 92.8218 108.937 92.8218ZM100.595 105.854V95.7575H108.937C111.944 95.7575 113.448 97.4401 113.448 100.806C113.448 104.172 111.944 105.854 108.937 105.854H100.595ZM131.636 117.132C124.01 117.132 120.215 113.051 120.215 104.816C120.215 96.5808 124.01 92.499 131.636 92.499C139.299 92.499 143.094 96.5806 143.094 104.816C143.094 113.051 139.299 117.132 131.636 117.132ZM123.653 104.816C123.653 110.974 126.337 114.053 131.636 114.053C136.972 114.053 139.657 110.974 139.657 104.816C139.657 98.6577 136.971 95.5785 131.636 95.5785C126.337 95.5785 123.653 98.6577 123.653 104.816ZM147.14 92.8216V111.332C147.14 114.483 149.431 116.81 152.546 116.81H164.325V113.874H153.405C151.723 113.874 150.505 112.549 150.505 110.759V92.8216H147.14ZM196.083 96.9748V93.788C194.186 92.9647 191.322 92.499 188.493 92.499C180.115 92.499 176.104 96.4735 176.104 104.744C176.104 113.051 180.114 117.132 188.135 117.132C191.393 117.132 193.899 116.452 196.083 115.844V112.585C193.756 113.266 191.322 114.053 188.314 114.053C182.406 114.053 179.542 111.046 179.542 104.744C179.542 98.4788 182.406 95.5785 188.636 95.5785C191.322 95.5785 194.114 96.1155 196.083 96.9748ZM198.446 92.8216L208.364 108.79V116.81H211.694V108.79L221.611 92.8216H217.601L210.047 105.389L202.457 92.8216H198.446H198.446Z" fill="white"/>
<path d="M252.276 95.6858L243.826 116.81H250.414L251.989 112.406H261.585L263.124 116.81H269.712L261.298 95.6502C260.439 93.5018 259.186 92.499 256.787 92.499C254.388 92.499 253.135 93.5018 252.276 95.6858ZM253.744 107.465L256.429 99.8388C256.501 99.6601 256.608 99.5168 256.787 99.5168C256.93 99.5168 257.074 99.5885 257.145 99.8388L259.83 107.465H253.744H253.744ZM289.404 92.8216H268.1V97.7265H275.906V116.81H281.67V97.7265H289.404V92.8216ZM305.516 92.8216H292.949V116.81H298.713V108.969H301.864L307.127 116.81H314.359L308.774 108.575C312.032 107.645 313.607 105.031 313.607 100.412C313.607 94.9698 310.85 92.8218 305.516 92.8218V92.8216ZM298.713 104.028V97.7265H304.764C306.661 97.7265 307.7 98.7291 307.7 100.663C307.7 103.026 306.661 104.028 304.764 104.028H298.713V104.028ZM324.564 95.6858L316.114 116.81H322.702L324.277 112.406H333.873L335.412 116.81H342L333.586 95.6502C332.727 93.5018 331.474 92.499 329.075 92.499C326.676 92.499 325.423 93.5018 324.564 95.6858ZM326.031 107.465L328.717 99.8388C328.788 99.6601 328.896 99.5168 329.075 99.5168C329.218 99.5168 329.361 99.5885 329.433 99.8388L332.118 107.465H326.032H326.031Z" fill="#84BD54"/>
<path d="M224.213 123.714L226.167 126.86V128.44H226.823V126.86L228.777 123.714H227.987L226.498 126.19L225.003 123.714H224.213Z" fill="white"/>
<path d="M231.492 128.502C229.99 128.502 229.242 127.698 229.242 126.076C229.242 124.454 229.99 123.649 231.492 123.649C233.002 123.649 233.749 124.454 233.749 126.076C233.749 127.698 233.002 128.502 231.492 128.502ZM229.919 126.076C229.919 127.289 230.449 127.896 231.492 127.896C232.543 127.896 233.072 127.289 233.072 126.076C233.072 124.863 232.543 124.256 231.492 124.256C230.448 124.256 229.919 124.863 229.919 126.076Z" fill="white"/>
<path d="M234.511 123.714V126.669C234.511 127.868 235.351 128.503 236.472 128.503C237.594 128.503 238.426 127.868 238.426 126.669V123.714H237.763V126.705C237.763 127.544 237.206 127.897 236.472 127.897C235.738 127.897 235.174 127.544 235.174 126.705V123.714H234.511Z" fill="white"/>
<path d="M241.544 123.714H239.357V128.44H240.02V126.719H241.332L242.454 128.44H243.265L242.094 126.662C242.793 126.507 243.131 126.013 243.131 125.188C243.131 124.165 242.595 123.714 241.544 123.714L241.544 123.714ZM240.02 126.14V124.292H241.544C242.129 124.292 242.433 124.553 242.433 125.188C242.433 125.809 242.143 126.141 241.544 126.141H240.02V126.14Z" fill="white"/>
<path d="M247.977 123.714H245.67V128.44H246.333V126.86H247.977C249.042 126.86 249.564 126.338 249.564 125.287C249.564 124.236 249.042 123.714 247.977 123.714V123.714ZM246.333 126.281V124.292H247.977C248.569 124.292 248.866 124.624 248.866 125.287C248.866 125.95 248.569 126.282 247.977 126.282H246.333V126.281Z" fill="white"/>
<path d="M252.449 128.502C250.946 128.502 250.199 127.698 250.199 126.076C250.199 124.454 250.946 123.649 252.449 123.649C253.958 123.649 254.706 124.454 254.706 126.076C254.706 127.698 253.958 128.502 252.449 128.502ZM250.876 126.076C250.876 127.289 251.405 127.896 252.449 127.896C253.5 127.896 254.029 127.289 254.029 126.076C254.029 124.863 253.5 124.256 252.449 124.256C251.405 124.256 250.876 124.863 250.876 126.076Z" fill="white"/>
<path d="M255.503 123.714V127.361C255.503 127.981 255.955 128.44 256.568 128.44H258.889V127.861H256.738C256.406 127.861 256.166 127.6 256.166 127.248V123.714H255.503Z" fill="white"/>
<path d="M259.75 123.714V128.44H260.413V123.714H259.75Z" fill="white"/>
<path d="M265.146 124.531V123.903C264.772 123.741 264.207 123.649 263.65 123.649C262 123.649 261.21 124.432 261.21 126.062C261.21 127.698 262 128.502 263.58 128.502C264.222 128.502 264.716 128.368 265.146 128.248V127.606C264.687 127.741 264.207 127.896 263.615 127.896C262.451 127.896 261.887 127.303 261.887 126.062C261.887 124.827 262.451 124.256 263.678 124.256C264.208 124.256 264.758 124.362 265.146 124.531Z" fill="white"/>
<path d="M265.611 123.714L267.565 126.86V128.44H268.221V126.86L270.175 123.714H269.385L267.896 126.19L266.401 123.714H265.611Z" fill="white"/>
<path d="M272.15 123.714L274.104 126.86V128.44H274.76V126.86L276.714 123.714H275.924L274.435 126.19L272.94 123.714H272.15Z" fill="white"/>
<path d="M277.757 124.122L276.121 128.439H276.869L277.264 127.374H279.599L279.994 128.439H280.741L279.105 124.122C278.999 123.847 278.816 123.649 278.428 123.649C278.047 123.649 277.856 123.847 277.758 124.122H277.757ZM277.475 126.795L278.329 124.482C278.364 124.39 278.414 124.383 278.428 124.383C278.449 124.383 278.498 124.39 278.526 124.482L279.387 126.795H277.476H277.475Z" fill="white"/>
<path d="M284.451 123.714H280.494V124.292H282.138V128.44H282.801V124.292H284.451V123.714Z" fill="white"/>
<path d="M287.4 123.714H285.213V128.44H285.876V126.719H287.188L288.31 128.44H289.121L287.95 126.662C288.649 126.507 288.987 126.013 288.987 125.188C288.987 124.165 288.451 123.714 287.4 123.714L287.4 123.714ZM285.876 126.14V124.292H287.4C287.985 124.292 288.289 124.553 288.289 125.188C288.289 125.809 287.999 126.141 287.4 126.141H285.876V126.14Z" fill="white"/>
<path d="M291.181 124.122L289.544 128.439H290.292L290.687 127.374H293.022L293.417 128.439H294.165L292.528 124.122C292.422 123.847 292.239 123.649 291.851 123.649C291.47 123.649 291.279 123.847 291.181 124.122H291.181ZM290.898 126.795L291.752 124.482C291.787 124.39 291.837 124.383 291.851 124.383C291.872 124.383 291.921 124.39 291.95 124.482L292.81 126.795H290.899H290.898Z" fill="white"/>
<path d="M299.807 124.531V123.903C299.349 123.734 298.805 123.649 298.241 123.649C296.972 123.649 296.288 124.087 296.288 125.011C296.288 125.758 296.739 126.139 298.1 126.4C299.038 126.584 299.349 126.781 299.349 127.19C299.349 127.649 298.961 127.896 298.086 127.896C297.515 127.896 296.901 127.79 296.386 127.621V128.248C296.908 128.418 297.529 128.502 298.1 128.502C299.433 128.502 300.054 128.037 300.054 127.155C300.054 126.393 299.588 126.02 298.199 125.745C297.296 125.568 296.993 125.364 296.993 124.962C296.993 124.503 297.402 124.256 298.262 124.256C298.77 124.256 299.292 124.341 299.807 124.531Z" fill="white"/>
<path d="M304.491 123.714H300.534V124.292H302.177V128.44H302.84V124.292H304.491V123.714Z" fill="white"/>
<path d="M305.88 124.122L304.244 128.439H304.992L305.387 127.374H307.721L308.116 128.439H308.864L307.228 124.122C307.122 123.847 306.939 123.649 306.551 123.649C306.17 123.649 305.979 123.847 305.881 124.122H305.88ZM305.598 126.795L306.452 124.482C306.487 124.39 306.536 124.383 306.55 124.383C306.572 124.383 306.621 124.39 306.649 124.482L307.51 126.795H305.598H305.598Z" fill="white"/>
<path d="M311.707 123.714H309.52V128.44H310.183V126.719H311.495L312.617 128.44H313.428L312.257 126.662C312.955 126.507 313.294 126.013 313.294 125.188C313.294 124.165 312.758 123.714 311.707 123.714L311.707 123.714ZM310.183 126.14V124.292H311.707C312.292 124.292 312.595 124.553 312.595 125.188C312.595 125.809 312.306 126.141 311.707 126.141H310.183V126.14Z" fill="white"/>
<path d="M317.914 123.714H313.957V124.292H315.6V128.44H316.263V124.292H317.914V123.714Z" fill="white"/>
<path d="M321.984 124.531V123.903C321.525 123.734 320.982 123.649 320.418 123.649C319.149 123.649 318.464 124.087 318.464 125.011C318.464 125.758 318.916 126.139 320.277 126.4C321.215 126.584 321.525 126.781 321.525 127.19C321.525 127.649 321.137 127.896 320.263 127.896C319.692 127.896 319.078 127.79 318.563 127.621V128.248C319.085 128.418 319.706 128.502 320.277 128.502C321.61 128.502 322.231 128.037 322.231 127.155C322.231 126.393 321.765 126.02 320.376 125.745C319.473 125.568 319.17 125.364 319.17 124.962C319.17 124.503 319.579 124.256 320.439 124.256C320.947 124.256 321.469 124.341 321.984 124.531Z" fill="white"/>
<path d="M324.657 123.714V128.44H325.32V126.366H327.972V128.44H328.635V123.714H327.972V125.788H325.32V123.714H324.657Z" fill="white"/>
<path d="M329.595 123.713V127.36C329.595 127.981 330.046 128.439 330.66 128.439H333.044V127.861H330.829C330.498 127.861 330.258 127.6 330.258 127.247V126.365H332.931V125.787H330.258V124.291H333.044V123.713H329.595L329.595 123.713Z" fill="white"/>
<path d="M336.091 123.714H333.905V128.44H334.568V126.719H335.88L337.001 128.44H337.813L336.642 126.662C337.34 126.507 337.679 126.013 337.679 125.188C337.679 124.165 337.142 123.714 336.092 123.714L336.091 123.714ZM334.568 126.14V124.292H336.091C336.677 124.292 336.98 124.553 336.98 125.188C336.98 125.809 336.691 126.141 336.091 126.141H334.568V126.14Z" fill="white"/>
<path d="M338.539 123.713V127.36C338.539 127.981 338.99 128.439 339.604 128.439H341.988V127.861H339.773C339.442 127.861 339.202 127.6 339.202 127.247V126.365H341.875V125.787H339.202V124.291H341.988V123.713H338.539L338.539 123.713Z" fill="white"/>
<path fill-rule="evenodd" clip-rule="evenodd" d="M170.376 100.761H168.694V92.8213H172.059V99.0786C172.059 100.004 171.302 100.761 170.377 100.761L170.376 100.761Z" fill="#84BD54"/>
<path fill-rule="evenodd" clip-rule="evenodd" d="M168.694 117.132H172.059V102.931C172.059 102.005 171.302 101.248 170.377 101.248H168.694V117.132H168.694Z" fill="white"/>
<path fill-rule="evenodd" clip-rule="evenodd" d="M227.972 92.7979C226.634 93.8153 226.309 95.7884 227.25 97.1845L234.85 108.465L237.551 101.561L232.112 93.4871C231.171 92.0914 229.308 91.781 227.972 92.7979ZM235.433 109.331L238.991 111.611L241.693 107.707L238.136 102.428L235.433 109.331Z" fill="white"/>
<path d="M243.774 103.572C246.156 97.4831 246.844 91.9771 245.311 91.2737C243.778 90.5702 240.604 94.9358 238.222 101.024L236.869 104.482C234.487 110.571 233.799 116.077 235.332 116.78C236.865 117.484 240.039 113.118 242.421 107.029L243.774 103.572Z" fill="#84BD54"/>
<path d="M236.868 94.5186C238.097 94.5186 239.093 93.5222 239.093 92.293C239.093 91.0638 238.097 90.0674 236.868 90.0674C235.638 90.0674 234.642 91.0638 234.642 92.293C234.642 93.5222 235.638 94.5186 236.868 94.5186Z" fill="#84BD54"/>
<defs>
<filter id="filter0_f_295_1566" x="0" y="0" width="441" height="219" filterUnits="userSpaceOnUse" color-interpolation-filters="sRGB">
<feFlood flood-opacity="0" result="BackgroundImageFix"/>
<feBlend mode="normal" in="SourceGraphic" in2="BackgroundImageFix" result="shape"/>
<feGaussianBlur stdDeviation="20.5" result="effect1_foregroundBlur_295_1566"/>
</filter>
</defs>
</svg>
