<svg width="360" height="346" viewBox="0 0 360 346" fill="none" xmlns="http://www.w3.org/2000/svg">
<path d="M79.7504 28.606L13.8691 102.217C-3.34318 121.449 -21.0163 189.238 83.1011 282.422C166.395 356.969 245.238 353.481 269.519 331.022C294.174 303.919 337.475 256.161 341.93 250.115C347.498 242.558 400.987 172.785 278.965 63.5766C174.422 -29.9876 102.607 1.28801 79.7504 28.606Z" fill="white"/>
<path d="M22.9303 91.4252C72.9743 54.1924 241.992 101.551 288.396 267.894M73.1454 80.0241C90.9219 144.903 196.374 301.985 333.061 260.691M13.8691 102.217L79.7504 28.606C102.607 1.28802 174.422 -29.9876 278.965 63.5766C400.987 172.785 347.498 242.558 341.93 250.115C337.475 256.161 294.174 303.919 269.519 331.022C245.238 353.481 166.395 356.969 83.1011 282.422C-21.0163 189.238 -3.34318 121.449 13.8691 102.217Z" stroke="#C4DEFF" stroke-width="1.5"/>
</svg>
