<svg width="770" height="379" viewBox="0 0 770 379" fill="none" xmlns="http://www.w3.org/2000/svg">
<path d="M289.711 2.64983C315.317 -6.10736 343.174 7.55091 351.931 33.1567C360.688 58.7625 347.03 86.6191 321.424 95.3764C282.629 108.644 223.922 134.241 175.312 166.845C151.015 183.141 131.012 200.018 117.268 216.516C112.389 222.372 108.624 227.784 105.769 232.75C107.875 232.496 110.104 232.201 112.46 231.861C132.735 228.932 157.819 223.456 188.344 216.596C218.204 209.886 252.422 202.054 288.544 195.238C428.946 168.744 624.112 151.887 756.618 295.827C774.947 315.737 773.664 346.735 753.754 365.064C733.844 383.392 702.845 382.11 684.517 362.2C591.023 260.639 447.189 265.032 306.716 291.538C272.62 297.972 240.251 305.375 209.832 312.211C180.078 318.898 151.189 325.282 126.472 328.853C103.793 332.129 75.6622 334.614 51.6848 326.847C38.155 322.464 23.1088 313.925 12.4338 298.101C1.8458 282.406 -0.670855 265.127 0.140814 250.33L0.250189 248.555C2.78722 211.381 20.6299 179.408 41.9738 153.788C63.7899 127.602 91.9613 104.748 120.723 85.4565C178.229 46.8854 245.172 17.8821 289.711 2.64983Z" fill="url(#paint0_linear_188_729)"/>
<defs>
<linearGradient id="paint0_linear_188_729" x1="384.783" y1="49.0131" x2="384.783" y2="329.013" gradientUnits="userSpaceOnUse">
<stop stop-color="#003B88"/>
<stop offset="1" stop-color="#0C57B9"/>
</linearGradient>
</defs>
</svg>
