<svg width="1393" height="816" viewBox="0 0 1393 816" fill="none" xmlns="http://www.w3.org/2000/svg">
<path d="M631.941 0.415642C658.776 -3.07969 683.364 15.8407 686.86 42.6758C690.355 69.5109 671.434 94.0987 644.599 97.5943C559.848 108.633 429.574 136.47 315.807 183.341C258.933 206.773 208.151 234.166 169.526 265.159C130.738 296.281 107.432 328.388 99.0006 360.758C98.4569 362.845 98.2022 364.38 98.0863 365.445C98.5068 365.722 99.03 366.046 99.6753 366.41C111.284 372.954 136.674 378.885 182.098 381.455C225.466 383.91 279.035 383.072 341.501 381.757C403.285 380.456 472.853 378.719 545.684 379.703C832.85 383.58 1197.35 429.323 1385.82 740.868C1399.83 764.022 1392.42 794.148 1369.26 808.156C1346.11 822.164 1315.98 814.748 1301.97 791.594C1143.32 529.334 831.6 481.573 544.361 477.694C473.592 476.738 405.922 478.422 343.564 479.735C281.888 481.034 224.41 482.007 176.561 479.299C130.768 476.708 84.7702 470.506 51.5527 451.782C33.5327 441.624 16.5203 426.267 7.11925 403.62C-2.22218 381.116 -1.45833 357.647 4.16499 336.057C19.7815 276.101 59.8959 227.477 108.195 188.723C156.657 149.838 216.63 118.209 278.475 92.7294C402.147 41.7776 541.17 12.2389 631.941 0.415642Z" fill="url(#paint0_linear_188_730)"/>
<defs>
<linearGradient id="paint0_linear_188_730" x1="794.301" y1="80.635" x2="682.5" y2="632.155" gradientUnits="userSpaceOnUse">
<stop stop-color="#003B88"/>
<stop offset="1" stop-color="#0C57B9"/>
</linearGradient>
</defs>
</svg>
