<svg width="94" height="4" viewBox="0 0 94 4" fill="none" xmlns="http://www.w3.org/2000/svg">
<path d="M0 0.0514221L1.55855 2.56075V3.82085H2.08153V2.56075L3.63993 0.0514221H3.00995L1.82284 2.02612L0.630129 0.0514221H0Z" fill="white"/>
<path d="M5.80592 3.87069C4.60763 3.87069 4.01135 3.22923 4.01135 1.93543C4.01135 0.641479 4.60763 1.52588e-05 5.80592 1.52588e-05C7.00981 1.52588e-05 7.60624 0.641479 7.60624 1.93543C7.60624 3.22923 7.00981 3.87069 5.80592 3.87069ZM4.55141 1.93543C4.55141 2.90298 4.97347 3.38684 5.80592 3.38684C6.64428 3.38684 7.06618 2.90298 7.06618 1.93543C7.06618 0.967723 6.64413 0.483869 5.80592 0.483869C4.97331 0.483869 4.55141 0.967723 4.55141 1.93543Z" fill="white"/>
<path d="M8.21399 0.0514221V2.40873C8.21399 3.36511 8.88356 3.87147 9.77798 3.87147C10.6725 3.87147 11.3364 3.36511 11.3364 2.40873V0.0514221H10.8075V2.43684C10.8075 3.10641 10.3629 3.38762 9.77798 3.38762C9.19272 3.38762 8.74287 3.10625 8.74287 2.43684V0.0514221H8.21399Z" fill="white"/>
<path d="M13.8231 0.0514221H12.0792V3.82085H12.608V2.44818H13.6543L14.5491 3.82085H15.1961L14.2622 2.40314C14.8192 2.27939 15.0893 1.88559 15.0893 1.22736C15.0893 0.411517 14.6616 0.0515776 13.8234 0.0515776L13.8231 0.0514221ZM12.608 1.98684V0.512761H13.8231C14.2902 0.512761 14.5321 0.720991 14.5321 1.22736C14.5321 1.72255 14.3014 1.98699 13.8231 1.98699H12.608V1.98684Z" fill="white"/>
<path d="M18.954 0.0514221H17.1144V3.82085H17.6433V2.56075H18.954C19.8037 2.56075 20.2199 2.14429 20.2199 1.30609C20.2199 0.467885 19.8036 0.0515776 18.954 0.0515776V0.0514221ZM17.6433 2.09926V0.512761H18.954C19.4267 0.512761 19.6631 0.777203 19.6631 1.30609C19.6631 1.83497 19.4267 2.09941 18.954 2.09941H17.6433V2.09926Z" fill="white"/>
<path d="M22.521 3.87069C21.3227 3.87069 20.7264 3.22923 20.7264 1.93543C20.7264 0.641479 21.3227 1.52588e-05 22.521 1.52588e-05C23.7248 1.52588e-05 24.3213 0.641479 24.3213 1.93543C24.3213 3.22923 23.7248 3.87069 22.521 3.87069ZM21.2664 1.93543C21.2664 2.90298 21.6885 3.38684 22.521 3.38684C23.3593 3.38684 23.7812 2.90298 23.7812 1.93543C23.7812 0.967723 23.3592 0.483869 22.521 0.483869C21.6883 0.483869 21.2664 0.967723 21.2664 1.93543Z" fill="white"/>
<path d="M24.9572 0.0514221V2.95998C24.9572 3.45517 25.3172 3.82085 25.8067 3.82085H27.6576V3.35951H25.9418C25.6773 3.35951 25.486 3.15128 25.486 2.86992V0.0514221H24.9572Z" fill="white"/>
<path d="M28.344 0.0514221V3.82085H28.8729V0.0514221H28.344Z" fill="white"/>
<path d="M32.6479 0.703281V0.202657C32.3497 0.073153 31.8996 1.52588e-05 31.4552 1.52588e-05C30.1389 1.52588e-05 29.5087 0.624553 29.5087 1.92409C29.5087 3.22923 30.1389 3.87069 31.399 3.87069C31.9109 3.87069 32.3049 3.76386 32.6479 3.6682V3.15609C32.2822 3.26308 31.8996 3.38684 31.4271 3.38684C30.499 3.38684 30.0488 2.91416 30.0488 1.92409C30.0488 0.939617 30.499 0.483869 31.4777 0.483869C31.8997 0.483869 32.3386 0.568342 32.6479 0.703281Z" fill="white"/>
<path d="M33.0192 0.0514221L34.5777 2.56075V3.82085H35.1007V2.56075L36.6591 0.0514221H36.0291L34.842 2.02612L33.6493 0.0514221H33.0192Z" fill="white"/>
<path d="M38.2346 0.0514221L39.793 2.56075V3.82085H40.3159V2.56075L41.8745 0.0514221H41.2444L40.0574 2.02612L38.8645 0.0514221H38.2346Z" fill="white"/>
<path d="M42.7071 0.377036L41.4019 3.82007H41.9984L42.3134 2.97053H44.1755L44.4906 3.82007H45.087L43.7819 0.377036C43.6974 0.157625 43.5512 1.52588e-05 43.2417 1.52588e-05C42.938 1.52588e-05 42.7859 0.157625 42.7072 0.377036H42.7071ZM42.4821 2.50919L43.1628 0.663994C43.1909 0.590857 43.2304 0.585112 43.2415 0.585112C43.2585 0.585112 43.2979 0.590857 43.3204 0.663994L44.0067 2.50919H42.4822H42.4821Z" fill="white"/>
<path d="M48.0462 0.0514221H44.89V0.512761H46.2009V3.82085H46.7298V0.512761H48.0462V0.0514221Z" fill="white"/>
<path d="M50.3978 0.0514221H48.6539V3.82085H49.1827V2.44818H50.229L51.1238 3.82085H51.7708L50.837 2.40314C51.3939 2.27939 51.664 1.88559 51.664 1.22736C51.664 0.411517 51.2363 0.0515776 50.3981 0.0515776L50.3978 0.0514221ZM49.1827 1.98684V0.512761H50.3978C50.8649 0.512761 51.1068 0.720991 51.1068 1.22736C51.1068 1.72255 50.8761 1.98699 50.3978 1.98699H49.1827V1.98684Z" fill="white"/>
<path d="M53.4134 0.377036L52.1083 3.82007H52.7047L53.0198 2.97053H54.8819L55.197 3.82007H55.7934L54.4883 0.377036C54.4038 0.157625 54.2575 1.52588e-05 53.948 1.52588e-05C53.6443 1.52588e-05 53.4923 0.157625 53.4136 0.377036H53.4134ZM53.1884 2.50919L53.8692 0.663994C53.8973 0.590857 53.9367 0.585112 53.9479 0.585112C53.9648 0.585112 54.0042 0.590857 54.0268 0.663994L54.7131 2.50919H53.1886H53.1884Z" fill="white"/>
<path d="M60.294 0.703281V0.202657C59.9282 0.067563 59.4949 1.52588e-05 59.0451 1.52588e-05C58.0325 1.52588e-05 57.4867 0.348931 57.4867 1.08574C57.4867 1.68217 57.8468 1.98605 58.9325 2.19397C59.6808 2.34025 59.9282 2.49785 59.9282 2.82425C59.9282 3.18994 59.6188 3.38684 58.9213 3.38684C58.4656 3.38684 57.9761 3.30236 57.5654 3.16743V3.6682C57.9817 3.80314 58.4769 3.87069 58.9325 3.87069C59.9957 3.87069 60.4909 3.49941 60.4909 2.79615C60.4909 2.18854 60.1195 1.8904 59.0112 1.67114C58.291 1.53046 58.0493 1.36726 58.0493 1.04661C58.0493 0.680765 58.3757 0.483869 59.0618 0.483869C59.467 0.483869 59.8834 0.551416 60.294 0.703281Z" fill="white"/>
<path d="M64.0296 0.0514221H60.8734V0.512761H62.1842V3.82085H62.7131V0.512761H64.0296V0.0514221Z" fill="white"/>
<path d="M65.1379 0.377036L63.8328 3.82007H64.4292L64.7443 2.97053H66.6064L66.9214 3.82007H67.5179L66.2128 0.377036C66.1283 0.157625 65.982 1.52588e-05 65.6725 1.52588e-05C65.3688 1.52588e-05 65.2168 0.157625 65.1381 0.377036H65.1379ZM64.9129 2.50919L65.5936 0.663994C65.6218 0.590857 65.6612 0.585112 65.6724 0.585112C65.6893 0.585112 65.7287 0.590857 65.7513 0.663994L66.4376 2.50919H64.9131H64.9129Z" fill="white"/>
<path d="M69.7849 0.0514221H68.0409V3.82085H68.5698V2.44818H69.6161L70.5108 3.82085H71.1578L70.224 2.40314C70.781 2.27939 71.051 1.88559 71.051 1.22736C71.051 0.411517 70.6234 0.0515776 69.7852 0.0515776L69.7849 0.0514221ZM68.5698 1.98684V0.512761H69.7849C70.2519 0.512761 70.4939 0.720991 70.4939 1.22736C70.4939 1.72255 70.2631 1.98699 69.7849 1.98699H68.5698V1.98684Z" fill="white"/>
<path d="M74.736 0.0514221H71.5796V0.512761H72.8906V3.82085H73.4193V0.512761H74.736V0.0514221Z" fill="white"/>
<path d="M77.9821 0.703281V0.202657C77.6163 0.067563 77.1831 1.52588e-05 76.7332 1.52588e-05C75.7206 1.52588e-05 75.1748 0.348931 75.1748 1.08574C75.1748 1.68217 75.5349 1.98605 76.6206 2.19397C77.3689 2.34025 77.6163 2.49785 77.6163 2.82425C77.6163 3.18994 77.307 3.38684 76.6094 3.38684C76.1537 3.38684 75.6643 3.30236 75.2535 3.16743V3.6682C75.6698 3.80314 76.165 3.87069 76.6206 3.87069C77.6838 3.87069 78.179 3.49941 78.179 2.79615C78.179 2.18854 77.8076 1.8904 76.6994 1.67114C75.9792 1.53046 75.7374 1.36726 75.7374 1.04661C75.7374 0.680765 76.0638 0.483869 76.75 0.483869C77.1551 0.483869 77.5716 0.551416 77.9821 0.703281Z" fill="white"/>
<path d="M80.1144 0.0514221V3.82085H80.6432V2.16681H82.7586V3.82085H83.2874V0.0514221H82.7586V1.70547H80.6432V0.0514221H80.1144Z" fill="white"/>
<path d="M84.0525 0.0509977V2.95955C84.0525 3.45474 84.4126 3.82043 84.902 3.82043H86.8036V3.35909H85.0371C84.7727 3.35909 84.5814 3.15086 84.5814 2.86949V2.16623H86.7137V1.70489H84.5814V0.512181H86.8036V0.0508423H84.0526L84.0525 0.0509977Z" fill="white"/>
<path d="M89.2341 0.0514221H87.4901V3.82085H88.019V2.44818H89.0653L89.96 3.82085H90.607L89.6732 2.40314C90.2302 2.27939 90.5002 1.88559 90.5002 1.22736C90.5002 0.411517 90.0726 0.0515776 89.2344 0.0515776L89.2341 0.0514221ZM88.019 1.98684V0.512761H89.2341C89.7011 0.512761 89.9431 0.720991 89.9431 1.22736C89.9431 1.72255 89.7123 1.98699 89.2341 1.98699H88.019V1.98684Z" fill="white"/>
<path d="M91.1863 0.0509977V2.95955C91.1863 3.45474 91.5464 3.82043 92.0359 3.82043H93.9374V3.35909H92.171C91.9065 3.35909 91.7152 3.15086 91.7152 2.86949V2.16623H93.8475V1.70489H91.7152V0.512181H93.9374V0.0508423H91.1865L91.1863 0.0509977Z" fill="white"/>
</svg>
