<svg width="578" height="19" viewBox="0 0 578 19" fill="none" xmlns="http://www.w3.org/2000/svg">
<path d="M1.50001 14.4576C54.1534 13.5434 106.035 12.0871 157.772 8.41238C159.632 8.2803 185.494 5.52594 175.545 7.48316C163.409 9.87039 151.216 12.2036 140.502 15.1813C133.519 17.1216 130.476 17.5447 140.692 16.9205C174.99 14.8248 209.236 12.7122 243.054 9.84392C259.869 8.4178 309.704 3.43057 293.133 5.13121C284.977 5.96829 278.786 8.71064 273.838 10.6462C268.738 12.6412 264.317 14.1069 275.328 13.3894C312.461 10.9693 349.683 8.57148 386.247 5.30485C389.702 4.99613 421.391 0.828211 409.466 4.28105C401.352 6.63056 389.492 8.98669 384.521 12.0664C381.413 13.9918 395.858 12.4184 397.986 12.2384C437.332 8.90998 476.09 5.70298 516.265 3.52482C527.905 2.89375 546.184 1.6845 575.738 1.5" stroke="url(#paint0_linear_2001_27)" stroke-width="3" stroke-linecap="round"/>
<defs>
<linearGradient id="paint0_linear_2001_27" x1="1.50542" y1="14.7694" x2="575.795" y2="4.79831" gradientUnits="userSpaceOnUse">
<stop stop-color="#4EAB00"/>
<stop offset="1" stop-color="#EAFFD8"/>
</linearGradient>
</defs>
</svg>
