<svg width="16" height="21" viewBox="0 0 16 21" fill="none" xmlns="http://www.w3.org/2000/svg">
<g clip-path="url(#clip0_317_269)">
<path fill-rule="evenodd" clip-rule="evenodd" d="M0.963361 2.08997C-0.0595575 2.86884 -0.307638 4.37933 0.411465 5.44819L6.22177 14.0842L8.28719 8.79837L4.12875 2.61754C3.40965 1.54899 1.98535 1.31141 0.963258 2.08997H0.963361ZM6.66797 14.7472L9.38768 18.7891L11.4534 13.504L8.7341 9.46263L6.66786 14.7472H6.66797Z" fill="white"/>
<path fill-rule="evenodd" clip-rule="evenodd" d="M14.2193 0.923833L14.2196 0.923936C15.3869 1.46017 15.9582 2.8804 15.4894 4.08037L9.56482 19.2438C9.09596 20.444 7.75769 20.9867 6.59043 20.4504L6.59012 20.4503C5.42287 19.914 4.8515 18.4939 5.32036 17.2938L11.2449 2.13041C11.7138 0.930228 13.0521 0.387495 14.2193 0.923833Z" fill="#84BD54"/>
<path fill-rule="evenodd" clip-rule="evenodd" d="M7.76458 1.52588e-05C8.70446 1.52588e-05 9.46612 0.762793 9.46612 1.70383C9.46612 2.64498 8.70436 3.40765 7.76458 3.40765C6.8247 3.40765 6.06305 2.64487 6.06305 1.70383C6.06305 0.76269 6.8248 1.52588e-05 7.76458 1.52588e-05Z" fill="#84BD54"/>
</g>
<defs>
<clipPath id="clip0_317_269">
<rect width="15.6535" height="20.6574" fill="white"/>
</clipPath>
</defs>
</svg>
